<?xml version="1.0" encoding="UTF-8"?>
<svg version="1.1" xmlns="http://www.w3.org/2000/svg" width="564" height="282">
<path d="M0 0 C186.12 0 372.24 0 564 0 C564 93.06 564 186.12 564 282 C377.88 282 191.76 282 0 282 C0 188.94 0 95.88 0 0 Z " fill="#010D16" transform="translate(0,0)"/>
<path d="M0 0 C14.96011815 12.51425756 24.7387176 25.91106603 30.6875 44.375 C31.00980591 45.3664502 31.00980591 45.3664502 31.33862305 46.37792969 C37.92138969 67.61334004 33.3584056 89.70544604 24 109.3125 C12.42114206 130.05265214 -6.15390935 144.4983145 -28.8046875 151.53515625 C-52.90205355 157.39747391 -77.60953049 154.40384141 -99.18359375 142.09375 C-119.7050262 129.11486901 -132.55974364 111.63813438 -139 88.3125 C-139.36738281 87.07886719 -139.36738281 87.07886719 -139.7421875 85.8203125 C-144.94347696 65.2289063 -139.77794285 41.54134012 -129.25 23.625 C-125.39152634 17.60113058 -120.96963473 12.43686694 -116 7.3125 C-115.46117188 6.70019531 -114.92234375 6.08789062 -114.3671875 5.45703125 C-105.26254269 -4.53977724 -92.60239781 -10.44591627 -80 -14.6875 C-78.50146484 -15.19796875 -78.50146484 -15.19796875 -76.97265625 -15.71875 C-51.20156972 -23.03353934 -21.01787844 -16.17520112 0 0 Z " fill="#FBFCFC" transform="translate(148,63.6875)"/>
<path d="M0 0 C2.08728331 2.85832983 1.75701535 5.2606197 1.76365662 8.76663208 C1.76891357 9.46301788 1.77417053 10.15940369 1.77958679 10.87689209 C1.79280423 13.18273272 1.78403635 15.48788379 1.77391052 17.79373169 C1.77593237 19.40216707 1.77884473 21.01060156 1.78260803 22.61903381 C1.78703506 25.99595843 1.78059426 29.37264525 1.7665863 32.74954224 C1.7495901 37.05443822 1.75927179 41.35876912 1.7773037 45.66364384 C1.78821384 48.98991546 1.78466065 52.31605622 1.77692032 55.64233208 C1.7749332 57.22777817 1.77732469 58.81323655 1.78435898 60.39866829 C1.85498284 80.81148915 1.85498284 80.81148915 -3.26872253 86.80778503 C-7.29775136 90.61338838 -11.39068893 92.89400718 -17.04640198 92.87576294 C-21.85045054 92.54886023 -25.90364271 92.16670862 -29.62452698 88.88357544 C-33.510877 83.84182406 -34.26301209 79.8070801 -34.01124573 73.46951294 C-33.26819129 68.50080546 -30.69324493 65.87213954 -27.12452698 62.57107544 C-22.02541519 59.12917498 -19.28588285 59.88357544 -12.62452698 59.88357544 C-12.62452698 47.67357544 -12.62452698 35.46357544 -12.62452698 22.88357544 C-35.39452698 27.83357544 -35.39452698 27.83357544 -58.62452698 32.88357544 C-58.63870667 36.59349731 -58.65288635 40.30341919 -58.66749573 44.12576294 C-58.69816327 47.74336665 -58.73724012 51.36078942 -58.77711487 54.978302 C-58.80022365 57.48051493 -58.81467374 59.98282415 -58.82008362 62.48513794 C-58.82942473 66.09511835 -58.87053228 69.70359902 -58.91749573 73.31326294 C-58.91356308 74.42096039 -58.90963043 75.52865784 -58.90557861 76.66992188 C-59.04294093 84.08481098 -60.4999562 89.65640458 -64.62452698 95.88357544 C-67.01124573 98.13748169 -67.01124573 98.13748169 -69.31202698 99.44607544 C-70.07901917 99.9011145 -70.84601135 100.35615356 -71.63624573 100.82498169 C-75.70129654 102.98928183 -79.04271894 103.34603831 -83.62452698 102.88357544 C-88.89047042 101.02500717 -91.41848465 98.28043348 -94.62452698 93.88357544 C-96.29740168 88.86495133 -96.65800046 83.60397426 -94.75343323 78.59060669 C-92.03568523 73.84123068 -88.86206649 70.62261432 -83.62452698 68.88357544 C-81.28956604 68.73709106 -81.28956604 68.73709106 -78.89015198 68.78982544 C-77.68794006 68.81012817 -77.68794006 68.81012817 -76.46144104 68.83084106 C-75.8552594 68.84824341 -75.24907776 68.86564575 -74.62452698 68.88357544 C-74.62310196 68.21372116 -74.62167694 67.54386688 -74.62020874 66.85371399 C-74.60055315 59.89441755 -74.54636841 52.93600311 -74.47193909 45.9770813 C-74.44871293 43.37851281 -74.43435263 40.77984957 -74.42897034 38.18118286 C-74.41971502 34.44986602 -74.3787957 30.7200492 -74.33155823 26.98904419 C-74.33549088 25.82334396 -74.33942352 24.65764374 -74.34347534 23.45661926 C-74.32383224 22.37572525 -74.30418915 21.29483124 -74.28395081 20.18118286 C-74.27728897 19.2285405 -74.27062714 18.27589813 -74.26376343 17.29438782 C-73.62452698 14.88357544 -73.62452698 14.88357544 -71.29954529 13.1137085 C-68.00570358 11.59900351 -64.70545641 10.78173557 -61.17530823 10.05154419 C-60.45301025 9.89421814 -59.73071228 9.73689209 -58.98652649 9.57479858 C-56.63843249 9.06507401 -54.28788576 8.56787768 -51.93702698 8.07107544 C-49.49883395 7.54687054 -47.061264 7.01984316 -44.6237793 6.49235535 C-42.98741008 6.13827144 -41.35082258 5.78519488 -39.71401978 5.43312073 C-34.67403523 4.3448166 -29.65374506 3.19713317 -24.64015198 1.99295044 C-23.45510071 1.70911499 -22.27004944 1.42527954 -21.04908752 1.13284302 C-18.85856937 0.60394367 -16.66981157 0.06768238 -14.48316956 -0.47702026 C-13.51016907 -0.70993774 -12.53716858 -0.94285522 -11.53468323 -1.18283081 C-10.70074036 -1.38851685 -9.86679749 -1.59420288 -9.00758362 -1.80612183 C-5.56681815 -2.25415101 -2.89935029 -1.99252208 0 0 Z " fill="#061119" transform="translate(138.62452697753906,77.11642456054688)"/>
<path d="M0 0 C2.16395569 1.5501709 2.16395569 1.5501709 4 4 C4.38957963 6.80219322 4.53754049 9.20992498 4.50170898 12.00976562 C4.50711197 12.81347092 4.51251495 13.61717621 4.51808167 14.44523621 C4.53057889 17.09928322 4.51407188 19.75224754 4.49609375 22.40625 C4.49624872 24.25183163 4.49773729 26.0974136 4.50050354 27.94299316 C4.50188798 31.80996089 4.48932208 35.67655791 4.46655273 39.54345703 C4.43816795 44.50021302 4.44090482 49.45635303 4.45364285 54.4131546 C4.46059782 58.22386944 4.45281282 62.03444189 4.44038582 65.84513855 C4.43586955 67.67277989 4.43553605 69.5004365 4.43945122 71.32807922 C4.44236167 73.88244965 4.42586489 76.43597121 4.40405273 78.99023438 C4.40855438 79.74568039 4.41305603 80.5011264 4.41769409 81.27946472 C4.37328015 84.40982375 4.18348263 86.66064071 2.68177795 89.43811035 C-0.05838595 91.98293717 -2.33682161 92 -6 92 C-9.4375 90.0625 -9.4375 90.0625 -12 88 C-12.56460938 88.474375 -13.12921875 88.94875 -13.7109375 89.4375 C-17.572817 92.07359522 -21.3993938 92.31637407 -26 92 C-32.727432 89.94823188 -38.40863372 86.11986714 -42 80 C-45.12277712 73.31261398 -45.51829374 67.45164241 -45.5 60.125 C-45.54253906 58.58779297 -45.54253906 58.58779297 -45.5859375 57.01953125 C-45.60760149 48.49475123 -43.4734555 42.02691819 -37.8671875 35.52734375 C-37.20976562 35.00269531 -36.55234375 34.47804687 -35.875 33.9375 C-35.21242188 33.38964844 -34.54984375 32.84179688 -33.8671875 32.27734375 C-30.55262719 30.00985166 -27.59608001 29.8148727 -23.6875 29.75 C-22.76324219 29.72421875 -21.83898437 29.6984375 -20.88671875 29.671875 C-17.4263218 30.06520835 -15.06346789 31.39253481 -12 33 C-12.02094727 32.14245117 -12.04189453 31.28490234 -12.06347656 30.40136719 C-12.13176527 27.21081528 -12.18185513 24.02063654 -12.21972656 20.82958984 C-12.23980642 19.4502332 -12.26707666 18.07096131 -12.30175781 16.69189453 C-12.35042817 14.70643021 -12.37086418 12.72033746 -12.390625 10.734375 C-12.41157227 9.54038086 -12.43251953 8.34638672 -12.45410156 7.11621094 C-11.91085766 3.38827265 -10.92394393 2.28505334 -8 0 C-5.02898609 -1.48550695 -3.16565278 -0.82306972 0 0 Z " fill="#F4F5F6" transform="translate(447,71)"/>
<path d="M0 0 C5.22350227 4.1768636 8.6145693 8.06109094 9.5 14.8125 C9.36488257 19.13326622 7.73769088 21.15786254 4.90771484 24.28540039 C1.54400146 27.3086099 -2.32717959 29.00961513 -6.4375 30.8125 C-7.25798828 31.19341797 -8.07847656 31.57433594 -8.92382812 31.96679688 C-13.54773657 34.0739411 -18.0760975 35.74748644 -23 37 C-20.52553448 40.71169829 -19.27223222 40.97426592 -15 42 C-11.13455477 42.05672561 -7.32126738 41.87231873 -3.4609375 41.6796875 C0 42 0 42 2.42578125 43.8203125 C4 46 4 46 4.5625 49 C4 52 4 52 1.8125 54.25 C-4.90944405 58.43254297 -10.82290734 58.92922176 -18.58984375 57.53515625 C-27.6045546 55.18771999 -34.80218438 49.71983266 -40 42 C-44.71909753 33.70494037 -45.51903395 25.01040837 -43.1875 15.78515625 C-40.20335065 7.5683839 -35.54805781 2.29975212 -28.0625 -2.15234375 C-19.10872901 -6.20019438 -8.30001642 -4.91693546 0 0 Z " fill="#F5F7F7" transform="translate(500,105)"/>
<path d="M0 0 C0.87173859 -0.00761353 1.74347717 -0.01522705 2.64163208 -0.02307129 C4.48583106 -0.03387597 6.33009126 -0.03672389 8.17431641 -0.03222656 C10.99095323 -0.03125581 13.80485154 -0.07283723 16.62109375 -0.1171875 C18.41405683 -0.12239582 20.20702936 -0.12508267 22 -0.125 C22.83973358 -0.14139526 23.67946716 -0.15779053 24.54464722 -0.17468262 C28.86555032 -0.12383616 30.62462849 0.08129749 34.16845703 2.78320312 C36.1328125 5.46875 36.1328125 5.46875 36.6953125 9.03125 C36.03420989 13.07132148 35.34083279 14.0214624 32.1328125 16.46875 C29.10839844 16.92285156 29.10839844 16.92285156 25.6171875 16.859375 C24.36679688 16.84648438 23.11640625 16.83359375 21.828125 16.8203125 C19.87519531 16.77003906 19.87519531 16.77003906 17.8828125 16.71875 C16.56539062 16.70070313 15.24796875 16.68265625 13.890625 16.6640625 C10.63771094 16.61691882 7.38517033 16.54517616 4.1328125 16.46875 C4.1328125 21.41875 4.1328125 26.36875 4.1328125 31.46875 C5.32519531 31.43394531 6.51757812 31.39914063 7.74609375 31.36328125 C9.31248592 31.33514247 10.87889331 31.3078424 12.4453125 31.28125 C13.23099609 31.25611328 14.01667969 31.23097656 14.82617188 31.20507812 C15.58349609 31.19541016 16.34082031 31.18574219 17.12109375 31.17578125 C18.16583862 31.15221558 18.16583862 31.15221558 19.23168945 31.12817383 C21.76567476 31.58212394 22.61198333 32.41671796 24.1328125 34.46875 C24.84061227 40.04267317 24.84061227 40.04267317 24.1328125 42.46875 C21.18720874 45.50456112 19.62273012 46.41798133 15.36328125 46.859375 C14.01506665 46.83306837 12.66711732 46.78576804 11.3203125 46.71875 C10.62744141 46.70070312 9.93457031 46.68265625 9.22070312 46.6640625 C7.52413586 46.61726064 5.82828774 46.54552624 4.1328125 46.46875 C4.15899658 47.50281982 4.18518066 48.53688965 4.2121582 49.60229492 C4.30287673 53.45054359 4.36013909 57.2986984 4.4074707 61.14770508 C4.43256597 62.81127839 4.46665046 64.47474196 4.51000977 66.13793945 C4.5708871 68.53364153 4.59907019 70.92788251 4.62109375 73.32421875 C4.64690018 74.0639946 4.6727066 74.80377045 4.69929504 75.56596375 C4.7014303 79.52572766 4.26453663 81.29722855 1.82495117 84.47387695 C-0.8671875 86.46875 -0.8671875 86.46875 -4.4296875 86.53125 C-8.26240501 85.34659186 -9.51360073 84.67333685 -11.8671875 81.46875 C-12.21617723 78.50946721 -12.33502949 75.93421479 -12.2578125 72.984375 C-12.25215271 72.16878113 -12.24649292 71.35318726 -12.24066162 70.51287842 C-12.21831477 67.91423228 -12.16812372 65.31697758 -12.1171875 62.71875 C-12.09712021 60.95444703 -12.07886984 59.1901224 -12.0625 57.42578125 C-12.0184558 53.10623672 -11.94944172 48.78772907 -11.8671875 44.46875 C-12.65480469 44.32695313 -13.44242188 44.18515625 -14.25390625 44.0390625 C-16.8671875 43.46875 -16.8671875 43.46875 -18.6796875 42.34375 C-20.61902972 39.28163071 -20.36136873 36.98979126 -19.8671875 33.46875 C-17.5546875 31.03125 -17.5546875 31.03125 -14.8671875 29.46875 C-13.8771875 29.46875 -12.8871875 29.46875 -11.8671875 29.46875 C-11.88289795 28.69684326 -11.8986084 27.92493652 -11.91479492 27.12963867 C-11.97708357 23.63858338 -12.01615923 20.14764491 -12.0546875 16.65625 C-12.09239258 14.83383789 -12.09239258 14.83383789 -12.13085938 12.97460938 C-12.14536133 11.22954102 -12.14536133 11.22954102 -12.16015625 9.44921875 C-12.18372192 7.83889771 -12.18372192 7.83889771 -12.20776367 6.19604492 C-11.3474891 -0.69293517 -5.73792352 0.00136968 0 0 Z " fill="#F6F7F8" transform="translate(227.8671875,76.53125)"/>
<path d="M0 0 C0.99 0.66 1.98 1.32 3 2 C3 2.66 3 3.32 3 4 C3.66 4 4.32 4 5 4 C5 3.34 5 2.68 5 2 C8.42329851 -0.28219901 9.84137668 -0.29741163 13.875 -0.3125 C15.41800781 -0.33763672 15.41800781 -0.33763672 16.9921875 -0.36328125 C23.54528061 0.42819623 27.48629812 5.08904564 31.62219238 9.8785553 C33.20809689 12.32041196 33.3886087 13.62148819 33.41992188 16.50561523 C33.43583374 17.39010849 33.45174561 18.27460175 33.46813965 19.18589783 C33.46834106 20.13388748 33.46854248 21.08187714 33.46875 22.05859375 C33.48017029 23.53054955 33.48017029 23.53054955 33.49182129 25.03224182 C33.502618 27.10585996 33.50547714 29.17953246 33.50097656 31.25317383 C33.50000446 34.42296176 33.54162691 37.5903273 33.5859375 40.75976562 C33.59114479 42.77603662 33.59383269 44.79231603 33.59375 46.80859375 C33.6183429 48.22754189 33.6183429 48.22754189 33.64343262 49.67515564 C33.59544241 54.25294904 33.47757656 56.35431447 30.68554688 60.12915039 C28 62 28 62 24.4375 62.125 C20.26248641 60.75863192 19.27533731 59.72208534 17 56 C16.43488204 53.08579811 16.44223805 50.23122859 16.4609375 47.26953125 C16.44914459 46.43789963 16.43735168 45.60626801 16.42520142 44.74943542 C16.39000249 42.10359806 16.38077478 39.45855224 16.375 36.8125 C16.35867135 34.15597294 16.33669443 31.49979919 16.30337524 28.84342957 C16.28370161 27.1930606 16.27441508 25.54252902 16.27645874 23.89204407 C16.41642744 19.47670863 16.41642744 19.47670863 14 16 C10.87094281 15.65988509 8.71863016 15.67624825 5.83178711 16.97680664 C2.96727506 20.14063595 3.49543026 23.63296837 3.56640625 27.68359375 C3.55680052 29.43294359 3.5470298 31.18229254 3.53710938 32.93164062 C3.54571304 35.68800989 3.56255345 38.44414665 3.5847168 41.20043945 C3.5992294 43.86195658 3.58398962 46.52212465 3.56640625 49.18359375 C3.58288712 50.00661484 3.59936798 50.82963593 3.61634827 51.67759705 C3.58036598 55.79742115 3.54640181 57.39822548 0.68725586 60.54711914 C-2 62 -2 62 -5.5625 62.0625 C-9.85588096 60.73545498 -10.75437903 59.88594516 -13 56 C-13.60556507 52.17860653 -13.58424427 48.39411407 -13.56640625 44.53125 C-13.57260483 43.41818481 -13.57880341 42.30511963 -13.58518982 41.1583252 C-13.59228453 38.80819574 -13.58912016 36.45801598 -13.57641602 34.10791016 C-13.56254785 30.51240614 -13.59663308 26.91950315 -13.63476562 23.32421875 C-13.63571681 21.03906186 -13.63385806 18.75390172 -13.62890625 16.46875 C-13.64216446 15.39467896 -13.65542267 14.32060791 -13.66908264 13.21398926 C-13.57599022 5.75253247 -13.57599022 5.75253247 -10.58569336 1.84570312 C-6.4753022 -1.08835005 -4.94084953 -1.1091703 0 0 Z " fill="#F6F7F8" transform="translate(308,101)"/>
<path d="M0 0 C1.9375 1.5625 1.9375 1.5625 3 3 C3.53882813 2.51402344 4.07765625 2.02804688 4.6328125 1.52734375 C8.9923031 -1.28546289 14.00055949 -0.584612 19 0 C24.50171565 2.44520696 27.84123557 6.98919127 31 12 C31.89786289 14.69358868 32.14363422 16.34335612 32.19287109 19.11669922 C32.20893402 19.94120575 32.22499695 20.76571228 32.24154663 21.61520386 C32.28613429 25.37545799 32.32704266 29.13553943 32.35009766 32.89599609 C32.36667028 34.87853727 32.39397749 36.86101838 32.43212891 38.84326172 C32.48691048 41.70571798 32.50877105 44.56677759 32.5234375 47.4296875 C32.54610687 48.31316864 32.56877625 49.19664978 32.59213257 50.10690308 C32.57684753 54.56262606 32.44737888 56.41644209 29.65478516 60.05908203 C27 62 27 62 24 62.625 C19.87375876 61.76536641 18.58000118 60.3164162 16 57 C15.31336818 54.02045055 15.37221007 51.1320907 15.43359375 48.0859375 C15.42795914 47.23448151 15.42232452 46.38302551 15.41651917 45.50576782 C15.40009494 42.7949474 15.41560019 40.0857634 15.4375 37.375 C15.45408336 34.6572522 15.46321898 31.94057274 15.44776917 29.22280884 C15.43847257 27.53447139 15.44770952 25.84590833 15.47740173 24.1578064 C15.48709196 19.63685226 15.48709196 19.63685226 13.17211914 15.91259766 C10.87908189 14.69866655 10.87908189 14.69866655 7.8125 15.75 C5.147331 16.73300931 5.147331 16.73300931 4 18 C3.9015615 20.824193 3.86286156 23.6283956 3.859375 26.453125 C3.84104204 28.20444004 3.82147128 29.95574247 3.80078125 31.70703125 C3.77183432 34.47661457 3.75000081 37.24539242 3.74951172 40.01513672 C3.74617309 42.68269842 3.71159272 45.34838858 3.671875 48.015625 C3.6789447 48.83975891 3.6860144 49.66389282 3.69329834 50.51300049 C3.60245912 54.81387522 3.37664358 56.51650275 0.64550781 60.02246094 C-2 62 -2 62 -5 62.625 C-9.23958228 61.74175369 -10.42717466 60.50868956 -13 57 C-13.74381521 53.02207764 -13.67665271 49.09546352 -13.62890625 45.05859375 C-13.63131821 43.8987648 -13.63373016 42.73893585 -13.63621521 41.54396057 C-13.63523687 39.09543432 -13.62184679 36.64688593 -13.59692383 34.19848633 C-13.56258985 30.44731709 -13.57627432 26.6984998 -13.59570312 22.94726562 C-13.58880554 20.56769829 -13.57913396 18.18813704 -13.56640625 15.80859375 C-13.57136612 14.68561386 -13.57632599 13.56263397 -13.58143616 12.40562439 C-13.56559982 11.36096512 -13.54976349 10.31630585 -13.53344727 9.23999023 C-13.52724869 8.3224144 -13.52105011 7.40483856 -13.5146637 6.4594574 C-12.84372385 3.25319283 -11.48613891 2.0622154 -9 0 C-5.85000502 -1.57499749 -3.36459118 -0.70833498 0 0 Z " fill="#F3F6F7" transform="translate(363,101)"/>
<path d="M0 0 C3.9375 0.4375 3.9375 0.4375 5.9375 1.8125 C6.9375 3.4375 6.9375 3.4375 6.9375 5.4375 C7.39898438 5.0765625 7.86046875 4.715625 8.3359375 4.34375 C13.08622212 0.96410086 16.79826714 -0.36690778 22.66015625 -0.05078125 C26.32852733 0.73574771 27.89654392 2.37606588 29.9375 5.4375 C30.5625 7.9375 30.5625 7.9375 29.9375 10.4375 C27.58867268 14.09123139 26.02715384 15.13201507 21.81640625 16.3125 C19.51886245 16.80428195 17.21237824 17.25634296 14.8984375 17.6640625 C11.84409619 18.46189836 10.94080198 19.12796078 8.9375 21.4375 C8.2775 21.4375 7.6175 21.4375 6.9375 21.4375 C6.96368408 22.53739258 6.98986816 23.63728516 7.0168457 24.77050781 C7.10741878 28.85542418 7.16477433 32.94025203 7.2121582 37.02587891 C7.23728641 38.79328338 7.27139516 40.5605841 7.31469727 42.32763672 C7.37542735 44.86972649 7.40372515 47.41044165 7.42578125 49.953125 C7.45158768 50.74180969 7.4773941 51.53049438 7.50398254 52.34307861 C7.5059945 56.28790885 7.32844892 58.02600868 4.56323242 60.93652344 C1.58275697 62.6402857 0.29843878 63.10968776 -3.0625 62.4375 C-5.67944336 61.16015625 -5.67944336 61.16015625 -8.0625 58.4375 C-8.83126591 54.42628396 -8.73844696 50.44812151 -8.69140625 46.375 C-8.69381821 45.19156006 -8.69623016 44.00812012 -8.69871521 42.78881836 C-8.6977359 40.28723804 -8.68432273 37.78563628 -8.65942383 35.28417969 C-8.62512731 31.45172621 -8.63875997 27.62157883 -8.65820312 23.7890625 C-8.65130467 21.35936517 -8.64163231 18.9296738 -8.62890625 16.5 C-8.63386612 15.35200928 -8.63882599 14.20401855 -8.64393616 13.02124023 C-8.62809982 11.95333252 -8.61226349 10.8854248 -8.59594727 9.78515625 C-8.58974869 8.84679932 -8.58355011 7.90844238 -8.5771637 6.94165039 C-7.63339182 2.349629 -4.65545895 -0.13455084 0 0 Z " fill="#F9FAFB" transform="translate(525.0625,100.5625)"/>
<path d="M0 0 C6.08732676 -0.41981564 9.20826311 -0.16672773 14 4 C18.09113911 8.76181765 21.0783118 12.66396958 21.19287109 19.11669922 C21.21696548 20.35345901 21.21696548 20.35345901 21.24154663 21.61520386 C21.28613429 25.37545799 21.32704266 29.13553943 21.35009766 32.89599609 C21.36667028 34.87853727 21.39397749 36.86101838 21.43212891 38.84326172 C21.48691048 41.70571798 21.50877105 44.56677759 21.5234375 47.4296875 C21.54610687 48.31316864 21.56877625 49.19664978 21.59213257 50.10690308 C21.57685303 54.56102464 21.44483268 56.4180531 18.65869141 60.06298828 C16 62 16 62 12.9375 62.5625 C9.13860131 61.83505131 8.22613176 61.18271888 6 58 C5.43510207 54.44184044 5.53571151 50.92268774 5.609375 47.328125 C5.61786469 45.77179352 5.61786469 45.77179352 5.62652588 44.184021 C5.64890509 40.87221008 5.69910581 37.56148356 5.75 34.25 C5.77006294 32.00392188 5.78831406 29.75782679 5.8046875 27.51171875 C5.84877482 22.00744291 5.91570259 16.50379893 6 11 C5.22398437 11.04769531 4.44796875 11.09539062 3.6484375 11.14453125 C1 11 1 11 -1.375 8.6875 C-1.91125 7.800625 -2.4475 6.91375 -3 6 C-2.67 5.01 -2.34 4.02 -2 3 C-1.34 3 -0.68 3 0 3 C0 2.01 0 1.02 0 0 Z " fill="#F9FAFA" transform="translate(374,101)"/>
<path d="M0 0 C4.09712693 0.58530385 4.98740578 1.31115345 7.5 4.5 C8.0146637 7.00415039 8.0146637 7.00415039 8.03344727 9.84765625 C8.05720177 11.44951782 8.05720177 11.44951782 8.08143616 13.08374023 C8.07647629 14.23173096 8.07151642 15.37972168 8.06640625 16.5625 C8.07260483 17.74593994 8.07880341 18.92937988 8.08518982 20.14868164 C8.09229224 22.65021949 8.08910673 25.15180457 8.07641602 27.65332031 C8.06255098 31.48590835 8.096619 35.31605576 8.13476562 39.1484375 C8.13571679 41.5781256 8.13385816 44.00781676 8.12890625 46.4375 C8.14216446 47.58549072 8.15542267 48.73348145 8.16908264 49.91625977 C8.07639775 57.81365284 8.07639775 57.81365284 5.18725586 61.25390625 C1.4926509 62.96711273 -0.6310348 62.64636006 -4.5 61.5 C-7.40467084 58.51205911 -7.87997378 56.34685379 -7.90405273 52.24414062 C-7.91673691 51.19625366 -7.92942108 50.1483667 -7.94248962 49.06872559 C-7.93955399 47.94260864 -7.93661835 46.8164917 -7.93359375 45.65625 C-7.9388356 44.4950061 -7.94407745 43.33376221 -7.94947815 42.1373291 C-7.95589982 39.68286946 -7.95455952 37.22837905 -7.94604492 34.77392578 C-7.93753191 31.0140927 -7.96630194 27.25577683 -7.99804688 23.49609375 C-7.99965885 21.11197962 -7.99908144 18.7278628 -7.99609375 16.34375 C-8.00732773 15.21763306 -8.01856171 14.09151611 -8.03013611 12.93127441 C-8.02075516 11.88338745 -8.01137421 10.83550049 -8.00170898 9.75585938 C-8.00154282 8.83526733 -8.00137665 7.91467529 -8.00120544 6.96618652 C-7.05036393 2.28756112 -4.55479366 0.65068481 0 0 Z " fill="#F6F9FA" transform="translate(278.5,100.5)"/>
<path d="M0 0 C4.00796087 0.75621903 4.38477199 1.5495592 6.625 4.8125 C8.68404512 8.07130369 9.73675054 10.8115065 10.3125 14.625 C10.9725 14.625 11.6325 14.625 12.3125 14.625 C12.4259375 14.06167969 12.539375 13.49835938 12.65625 12.91796875 C13.39563868 10.33450948 14.48541664 8.27146929 15.8125 5.9375 C16.2559375 5.14988281 16.699375 4.36226562 17.15625 3.55078125 C18.3125 1.625 18.3125 1.625 19.3125 0.625 C21.75 0.4375 21.75 0.4375 24.3125 0.625 C27.81441957 4.12691957 26.8849497 9.36550636 27.0625 14.125 C27.11792969 15.19621094 27.17335938 16.26742187 27.23046875 17.37109375 C27.27300781 18.39332031 27.31554687 19.41554687 27.359375 20.46875 C27.39901367 21.40912109 27.43865234 22.34949219 27.47949219 23.31835938 C27.3125 25.625 27.3125 25.625 25.3125 27.625 C22.6875 27.25 22.6875 27.25 20.3125 26.625 C19.8175 21.675 19.8175 21.675 19.3125 16.625 C16.3425 22.07 16.3425 22.07 13.3125 27.625 C9.3125 26.625 9.3125 26.625 7.828125 24.33984375 C6.65625 21.76822917 5.484375 19.19661458 4.3125 16.625 C3.6525 20.255 2.9925 23.885 2.3125 27.625 C0.3325 27.625 -1.6475 27.625 -3.6875 27.625 C-3.71636537 23.31251391 -3.73425255 19.00005238 -3.75 14.6875 C-3.75837891 13.45580078 -3.76675781 12.22410156 -3.77539062 10.95507812 C-3.77861328 9.78525391 -3.78183594 8.61542969 -3.78515625 7.41015625 C-3.79039307 6.32613525 -3.79562988 5.24211426 -3.80102539 4.12524414 C-3.6427458 0.63934897 -3.41204371 0.79349854 0 0 Z " fill="#F2F4F5" transform="translate(307.6875,186.375)"/>
<path d="M0 0 C2.640625 1.25390625 2.640625 1.25390625 5 4 C5.79630036 8.17052061 5.74252157 12.26573144 5.6875 16.5 C5.71521484 17.64082031 5.74292969 18.78164062 5.77148438 19.95703125 C5.76226552 23.09513036 5.6602859 25.93168013 5 29 C1.60212197 32.35546346 0.13013155 33 -4.625 33 C-8.36004082 31.89332124 -9.58824105 30.99100659 -12 28 C-12.83371819 24.22677673 -12.64887192 20.41781456 -12.625 16.5625 C-12.65722656 15.52544922 -12.68945312 14.48839844 -12.72265625 13.41992188 C-12.73212893 6.04543685 -12.73212893 6.04543685 -10.7277832 3.18334961 C-7.24737269 0.15491244 -4.52345119 -0.86619278 0 0 Z " fill="#081119" transform="translate(430,115)"/>
<path d="M0 0 C1.99954746 -0.04254356 4.00041636 -0.04080783 6 0 C8.28707043 2.28707043 7.40851215 8.57139972 7.51757812 11.83007812 C7.5334342 16.38975533 7.5334342 16.38975533 10 20 C12.54190002 20.2500773 12.54190002 20.2500773 15 20 C17.09570947 17.90429053 16.37238899 13.4715583 16.5 10.5625 C16.86559982 2.26880036 16.86559982 2.26880036 18 0 C19.66611905 -0.042721 21.33382885 -0.04063832 23 0 C25.23653133 2.23653133 24.32615202 7.18778975 24.375 10.1875 C24.41238281 11.03892578 24.44976562 11.89035156 24.48828125 12.76757812 C24.54913509 17.13891248 24.42449 20.07967973 21.6015625 23.55078125 C17.59619463 27.32160055 14.90092032 27.39034541 9.55078125 27.359375 C5.44131496 26.78039966 3.78650423 25.00085071 1 22 C-0.20029908 19.59940183 -0.11459743 18.10639351 -0.09765625 15.4296875 C-0.09443359 14.53378906 -0.09121094 13.63789063 -0.08789062 12.71484375 C-0.07951172 11.77769531 -0.07113281 10.84054688 -0.0625 9.875 C-0.05798828 8.93011719 -0.05347656 7.98523438 -0.04882812 7.01171875 C-0.03702357 4.67441613 -0.02055759 2.33723939 0 0 Z " fill="#E4E7EA" transform="translate(345,187)"/>
<path d="M0 0 C0.99 0.66 1.98 1.32 3 2 C3.1875 4.625 3.1875 4.625 3 7 C-1.51718381 8.36884358 -4.58774263 7.47075246 -9 6 C-8.67 6.99 -8.34 7.98 -8 9 C-6.03154957 9.87914855 -6.03154957 9.87914855 -3.6875 10.4375 C0.14958865 11.62895269 2.75091977 12.47970051 5 16 C5.5625 19.5 5.5625 19.5 5 23 C2.26301582 26.25016871 0.25645702 26.93795395 -3.875 27.9375 C-8.35715791 28.28620678 -11.17049417 27.34459541 -15 25 C-15.9375 22.3125 -15.9375 22.3125 -16 20 C-11.54090909 18.76136364 -11.54090909 18.76136364 -8.875 19.9375 C-7.946875 20.4634375 -7.946875 20.4634375 -7 21 C-6.01 21 -5.02 21 -4 21 C-4 20.01 -4 19.02 -4 18 C-4.61488281 17.82984375 -5.22976563 17.6596875 -5.86328125 17.484375 C-12.37209302 15.53276956 -12.37209302 15.53276956 -15.0625 13.25 C-16.45038047 9.91908687 -16.50935032 7.56545222 -16 4 C-12.08840764 -1.26041731 -6.00994561 -0.80008564 0 0 Z " fill="#EBEDEF" transform="translate(395,187)"/>
<path d="M0 0 C2.28473292 1.45392095 3.34671154 2.79561538 5 5 C4.01 6.32 3.02 7.64 2 9 C1.01 8.67 0.02 8.34 -1 8 C-3.72331488 7.76811378 -6.25039269 7.86906632 -9 8 C-11.36410488 9.93731528 -11.36410488 9.93731528 -11.3125 13.4375 C-11.30096406 16.85443362 -11.30096406 16.85443362 -9.828125 18.75 C-7.20451866 20.54391887 -5.53024552 20.02785319 -2.4375 19.5625 C0.50390625 19.12890625 0.50390625 19.12890625 3 19 C5 21 5 21 5.0625 22.9375 C3.65292253 25.67373863 1.79065477 26.47170416 -1.03515625 27.5234375 C-5.72081489 28.65991932 -9.15459518 27.47147576 -13.25 25.1875 C-16.56745118 22.54861838 -18.69652766 20.67415575 -19.46875 16.4140625 C-19.56353591 7.95441989 -19.56353591 7.95441989 -16.75 4.4375 C-11.57571241 -0.14880037 -6.82648319 -1.13590916 0 0 Z " fill="#E7EAEC" transform="translate(445,187)"/>
<path d="M0 0 C0.91765137 -0.00315216 1.83530273 -0.00630432 2.78076172 -0.009552 C4.27760498 -0.00651566 4.27760498 -0.00651566 5.8046875 -0.00341797 C6.82191895 -0.00437469 7.83915039 -0.00533142 8.88720703 -0.00631714 C11.04264386 -0.00699908 13.19808272 -0.00514382 15.35351562 -0.00097656 C18.66541121 0.00437148 21.97717117 -0.0009211 25.2890625 -0.00732422 C27.37760447 -0.00666344 29.46614635 -0.00538228 31.5546875 -0.00341797 C32.55258301 -0.0054422 33.55047852 -0.00746643 34.57861328 -0.009552 C35.49626465 -0.00639984 36.41391602 -0.00324768 37.359375 0 C38.17132324 0.00079559 38.98327148 0.00159119 39.81982422 0.00241089 C41.6796875 0.12939453 41.6796875 0.12939453 42.6796875 1.12939453 C42.8046875 3.62939453 42.8046875 3.62939453 42.6796875 6.12939453 C41.10668422 7.70239781 39.54284705 7.25664957 37.359375 7.25878906 C36.44172363 7.26194122 35.52407227 7.26509338 34.57861328 7.26834106 C33.58071777 7.26631683 32.58282227 7.2642926 31.5546875 7.26220703 C30.53745605 7.26316376 29.52022461 7.26412048 28.47216797 7.2651062 C26.31673114 7.26578814 24.16129228 7.26393288 22.00585938 7.25976562 C18.69396379 7.25441758 15.38220383 7.25971016 12.0703125 7.26611328 C9.98177053 7.2654525 7.89322865 7.26417135 5.8046875 7.26220703 C4.30784424 7.26524338 4.30784424 7.26524338 2.78076172 7.26834106 C1.86311035 7.2651889 0.94545898 7.26203674 0 7.25878906 C-0.81194824 7.25799347 -1.62389648 7.25719788 -2.46044922 7.25637817 C-4.3203125 7.12939453 -4.3203125 7.12939453 -5.3203125 6.12939453 C-5.4453125 3.62939453 -5.4453125 3.62939453 -5.3203125 1.12939453 C-3.74730922 -0.44360875 -2.18347205 0.00213949 0 0 Z " fill="#FAFBFC" transform="translate(231.3203125,195.87060546875)"/>
<path d="M0 0 C6.37203593 -0.0505963 12.7440203 -0.08568957 19.11621094 -0.10986328 C21.28517594 -0.11993789 23.45412731 -0.13359798 25.62304688 -0.15087891 C28.73571126 -0.17506323 31.84819651 -0.18646832 34.9609375 -0.1953125 C35.934935 -0.20563507 36.9089325 -0.21595764 37.91244507 -0.22659302 C39.26361923 -0.22681961 39.26361923 -0.22681961 40.64208984 -0.22705078 C41.43706879 -0.231492 42.23204773 -0.23593323 43.05111694 -0.24050903 C45 0 45 0 47 2 C46.46428571 5.53571429 46.46428571 5.53571429 45 7 C43.62940407 7.10312037 42.25360341 7.13848953 40.87915039 7.14526367 C39.56757713 7.15483345 39.56757713 7.15483345 38.22950745 7.16459656 C36.8029911 7.16626579 36.8029911 7.16626579 35.34765625 7.16796875 C33.89195473 7.17296135 33.89195473 7.17296135 32.40684509 7.17805481 C30.3497668 7.1831283 28.29268025 7.18546301 26.2355957 7.18530273 C23.07945256 7.18748826 19.92365929 7.20563691 16.76757812 7.22460938 C14.7734387 7.22754333 12.77929761 7.22952811 10.78515625 7.23046875 C9.36167625 7.24124702 9.36167625 7.24124702 7.90943909 7.25224304 C7.03190475 7.24916641 6.15437042 7.24608978 5.25024414 7.24291992 C4.4760463 7.24434494 3.70184845 7.24576996 2.90419006 7.24723816 C1 7 1 7 -1 5 C-0.625 2.375 -0.625 2.375 0 0 Z " fill="#F6F7FA" transform="translate(475,196)"/>
<path d="M0 0 C2.9375 1.5625 2.9375 1.5625 5 4 C5.625 7.4375 5.625 7.4375 5 11 C2.9375 13.9375 2.9375 13.9375 0 16 C-3.95779649 16.62491523 -6.00863886 16.61006839 -9.4375 14.5 C-11.63828902 10.97873756 -11.80414661 8.04560357 -11 4 C-8.1553332 -0.55146687 -5.11689336 -0.71816047 0 0 Z " fill="#F1F2F3" transform="translate(282,79)"/>
<path d="M0 0 C0.33 0 0.66 0 1 0 C1.33 13.86 1.66 27.72 2 42 C2.66 41.34 3.32 40.68 4 40 C5.485 39.505 5.485 39.505 7 39 C8.06659882 41.77315694 8.03803223 42.89056032 7.04296875 45.75390625 C4.30010437 54.2906864 5.6920244 62.86789333 9 71 C6 70 6 70 4.8125 67.9375 C4.544375 67.298125 4.27625 66.65875 4 66 C3.34 66 2.68 66 2 66 C1.67 71.61 1.34 77.22 1 83 C0.67 83 0.34 83 0 83 C0 55.61 0 28.22 0 0 Z " fill="#1A2229" transform="translate(451,75)"/>
<path d="M0 0 C4.875 0.875 4.875 0.875 6 2 C6.25208722 5.80588144 6.18522344 9.62425456 6.1875 13.4375 C6.19974609 14.51322266 6.21199219 15.58894531 6.22460938 16.69726562 C6.22750977 18.23737305 6.22750977 18.23737305 6.23046875 19.80859375 C6.23457764 20.75532959 6.23868652 21.70206543 6.24291992 22.67749023 C6 25 6 25 4 27 C1.4375 26.75 1.4375 26.75 -1 26 C-2.8779923 22.24401541 -2.18475762 17.69526018 -2.1875 13.5625 C-2.19974609 12.59505859 -2.21199219 11.62761719 -2.22460938 10.63085938 C-2.22654297 9.70208984 -2.22847656 8.77332031 -2.23046875 7.81640625 C-2.23457764 6.96506104 -2.23868652 6.11371582 -2.24291992 5.23657227 C-2 3 -2 3 0 0 Z " fill="#FAF9FB" transform="translate(411,187)"/>
<path d="M0 0 C0 1.65 0 3.3 0 5 C2.475 5.495 2.475 5.495 5 6 C4.34 7.32 3.68 8.64 3 10 C4.32 10 5.64 10 7 10 C7 10.99 7 11.98 7 13 C4.3118751 13.08164159 1.626277 13.14079668 -1.0625 13.1875 C-2.19075195 13.22520508 -2.19075195 13.22520508 -3.34179688 13.26367188 C-8.64604984 13.33255828 -12.33681091 12.60144099 -17 10 C-17.33 9.01 -17.66 8.02 -18 7 C-15.37690901 5.82887054 -12.75171858 4.66294036 -10.125 3.5 C-9.37863281 3.16613281 -8.63226563 2.83226562 -7.86328125 2.48828125 C-7.14785156 2.17246094 -6.43242187 1.85664063 -5.6953125 1.53125 C-5.03547363 1.23798828 -4.37563477 0.94472656 -3.69580078 0.64257812 C-2 0 -2 0 0 0 Z " fill="#0B121A" transform="translate(495,135)"/>
<path d="M0 0 C2.875 1.5 2.875 1.5 5 3 C2.92733168 5.24435921 1.00788067 6.68404081 -1.72265625 8.04296875 C-2.42583984 8.39423828 -3.12902344 8.74550781 -3.85351562 9.10742188 C-4.58248047 9.46384766 -5.31144531 9.82027344 -6.0625 10.1875 C-6.79533203 10.55552734 -7.52816406 10.92355469 -8.28320312 11.30273438 C-13.73278061 14 -13.73278061 14 -16 14 C-15.74986131 9.7476422 -15.43113402 7.52435219 -12.6875 4.1875 C-8.34340692 0.65161028 -5.70400353 -0.58204118 0 0 Z " fill="#131A1F" transform="translate(488,115)"/>
<path d="M0 0 C2.27979455 1.4608883 3.34659752 2.79546335 5 5 C4.01 6.32 3.02 7.64 2 9 C1.01 8.67 0.02 8.34 -1 8 C-2.95586747 7.80540963 -2.95586747 7.80540963 -5 7.8125 C-5.680625 7.79832031 -6.36125 7.78414062 -7.0625 7.76953125 C-9.32614132 7.89059589 -9.32614132 7.89059589 -12 10 C-12.66 9.67 -13.32 9.34 -14 9 C-14.34098943 5.93109509 -14.21961817 4.36935783 -12.625 1.6875 C-8.58622963 -0.90885238 -4.66133132 -0.91118108 0 0 Z " fill="#EEF0F3" transform="translate(445,187)"/>
<path d="M0 0 C0.99 0.33 1.98 0.66 3 1 C2.5148291 1.62003906 2.0296582 2.24007812 1.52978516 2.87890625 C-0.61417447 7.25304922 -0.45956863 11.12618414 -0.4765625 15.9375 C-0.49214203 16.89519287 -0.50772156 17.85288574 -0.52377319 18.83959961 C-0.5711997 21.89305817 -0.59901508 24.94629018 -0.625 28 C-0.66156944 31.05354821 -0.70227662 34.10697041 -0.74765015 37.16040039 C-0.77472777 39.05794909 -0.79614291 40.95558924 -0.81118774 42.85327148 C-0.86068782 47.02274211 -0.94683801 50.93523839 -2 55 C-2.33 55 -2.66 55 -3 55 C-3.0760222 47.81012743 -3.12858815 40.6203584 -3.16479492 33.43017578 C-3.1798877 30.98384732 -3.20036402 28.53754593 -3.22631836 26.09130859 C-3.26267918 22.57642943 -3.27972161 19.06190782 -3.29296875 15.546875 C-3.30845261 14.4519574 -3.32393646 13.35703979 -3.33988953 12.22894287 C-3.34011612 11.20818665 -3.34034271 10.18743042 -3.34057617 9.13574219 C-3.34723801 8.23861511 -3.35389984 7.34148804 -3.36076355 6.41717529 C-2.93138177 3.54024657 -1.90069325 2.15815541 0 0 Z " fill="#C5CBD0" transform="translate(298,102)"/>
<path d="M0 0 C0.66 0 1.32 0 2 0 C2.20625 1.258125 2.4125 2.51625 2.625 3.8125 C3.4861913 7.27558843 3.68653575 7.79102383 6.8125 9.875 C7.864375 10.24625 8.91625 10.6175 10 11 C10.94875 11.391875 11.8975 11.78375 12.875 12.1875 C13.57625 12.455625 14.2775 12.72375 15 13 C14.67 14.32 14.34 15.64 14 17 C13.29875 16.855625 12.5975 16.71125 11.875 16.5625 C8.92443859 15.98521625 5.96729849 15.48304859 3 15 C2.34 16.32 1.68 17.64 1 19 C0.01 18.34 -0.98 17.68 -2 17 C-2 16.34 -2 15.68 -2 15 C-1.01 14.34 -0.02 13.68 1 13 C0.67 12.34 0.34 11.68 0 11 C0.66 10.67 1.32 10.34 2 10 C0.68 8.35 -0.64 6.7 -2 5 C-1.34 3.35 -0.68 1.7 0 0 Z " fill="#0F151B" transform="translate(377,192)"/>
<path d="M0 0 C1.65 0.33 3.3 0.66 5 1 C5.10826289 3.4178712 5.18739789 5.83087556 5.25 8.25 C5.28351563 8.93191406 5.31703125 9.61382812 5.3515625 10.31640625 C5.4215705 13.92181813 5.29151719 15.64068812 2.984375 18.484375 C2.00210937 19.23460937 2.00210937 19.23460937 1 20 C0.34 19.34 -0.32 18.68 -1 18 C-0.67 17.67 -0.34 17.34 0 17 C0.07325168 14.13732433 0.09238205 11.299281 0.0625 8.4375 C0.05798828 7.63119141 0.05347656 6.82488281 0.04882812 5.99414062 C0.03700518 3.99606244 0.01906914 1.99802217 0 0 Z " fill="#F8FBFC" transform="translate(364,188)"/>
<path d="M0 0 C1.65 0 3.3 0 5 0 C5.33 0.66 5.66 1.32 6 2 C4.68 2 3.36 2 2 2 C2 7.94 2 13.88 2 20 C3.32 19.01 4.64 18.02 6 17 C5.75 19.375 5.75 19.375 5 22 C3.1875 23.1875 3.1875 23.1875 1 24 C0.2575 24.37125 -0.485 24.7425 -1.25 25.125 C-1.8275 25.41375 -2.405 25.7025 -3 26 C-3.33 25.01 -3.66 24.02 -4 23 C-6.00016466 21.79117904 -6.00016466 21.79117904 -8 21 C-6.02 20.34 -4.04 19.68 -2 19 C-1.93941406 17.79601562 -1.87882812 16.59203125 -1.81640625 15.3515625 C-1.73200268 13.77602923 -1.64735459 12.20050904 -1.5625 10.625 C-1.50352539 9.43390625 -1.50352539 9.43390625 -1.44335938 8.21875 C-1.11328125 2.2265625 -1.11328125 2.2265625 0 0 Z " fill="#CACDD1" transform="translate(363,187)"/>
<path d="M0 0 C0.33 0 0.66 0 1 0 C1.33 12.54 1.66 25.08 2 38 C2.99 38 3.98 38 5 38 C4.875 40.3125 4.875 40.3125 4 43 C1.05402394 44.96398404 -0.80035455 46.15784809 -4.375 45.6875 C-4.91125 45.460625 -5.4475 45.23375 -6 45 C-5 42 -5 42 -2.97558594 40.86401367 C-0.58256468 38.99560303 -0.58256468 38.99560303 -0.45410156 35.0793457 C-0.41282094 33.44520859 -0.39302282 31.81043792 -0.390625 30.17578125 C-0.37408875 29.31438034 -0.35755249 28.45297943 -0.34051514 27.56547546 C-0.2919333 24.81441187 -0.27064211 22.06390138 -0.25 19.3125 C-0.22184876 17.44723764 -0.19192252 15.58200117 -0.16015625 13.71679688 C-0.08617185 9.14457678 -0.0366597 4.57266557 0 0 Z " fill="#343B41" transform="translate(311,120)"/>
<path d="M0 0 C8.58 0 17.16 0 26 0 C26 0.33 26 0.66 26 1 C17.75 1 9.5 1 1 1 C1 5.29 1 9.58 1 14 C6.94 13.67 12.88 13.34 19 13 C22.41847314 18.69745523 22.41847314 18.69745523 21.9375 22.6875 C21.86402344 23.45449219 21.79054687 24.22148438 21.71484375 25.01171875 C21 27 21 27 18.94140625 28.26953125 C17.98041016 28.63111328 17.98041016 28.63111328 17 29 C17.66 28.01 18.32 27.02 19 26 C19.37167184 23.23979004 19.17850636 20.81147524 19 18 C15.97906785 14.97906785 12.43627928 15.53323166 8.375 15.375 C7.57320312 15.33632812 6.77140625 15.29765625 5.9453125 15.2578125 C3.96392444 15.16346069 1.98199355 15.08063785 0 15 C0 10.05 0 5.1 0 0 Z " fill="#373C41" transform="translate(232,93)"/>
<path d="M0 0 C2.875 -0.125 2.875 -0.125 6 0 C6.66 0.66 7.32 1.32 8 2 C7.34 2 6.68 2 6 2 C6.16749756 2.63446045 6.33499512 3.2689209 6.50756836 3.92260742 C7.17031271 8.06434891 7.01207977 12.0554323 6.87890625 16.23828125 C6.85529526 17.11904831 6.83168427 17.99981537 6.80735779 18.90727234 C6.73103294 21.70919169 6.64687514 24.51081266 6.5625 27.3125 C6.50924807 29.21678247 6.4565079 31.12107933 6.40429688 33.02539062 C6.27546017 37.68378125 6.13959995 42.34192 6 47 C5.67 47 5.34 47 5 47 C5.00112793 45.83952148 5.00225586 44.67904297 5.00341797 43.48339844 C4.99974451 39.17414557 4.95693457 34.86601287 4.90234375 30.55712891 C4.88418506 28.6929445 4.87661503 26.82862545 4.87988281 24.96435547 C4.88274044 22.28246943 4.84742494 19.60337442 4.8046875 16.921875 C4.81378143 16.08944275 4.82287537 15.2570105 4.83224487 14.39935303 C4.77482108 12.10884394 4.67339065 10.19118158 4 8 C1.126368 5.38221228 1.126368 5.38221228 -2 4 C-1.34 2.68 -0.68 1.36 0 0 Z " fill="#C5C8CB" transform="translate(374,111)"/>
<path d="M0 0 C4.84659077 0.59104765 8.60748167 1.97944157 13 4 C12.34 5.32 11.68 6.64 11 8 C3.61538462 8.36923077 3.61538462 8.36923077 0.5 6.5 C0.005 6.005 -0.49 5.51 -1 5 C-0.67 3.35 -0.34 1.7 0 0 Z " fill="#E2EBED" transform="translate(380,206)"/>
<path d="M0 0 C-0.3125 1.9375 -0.3125 1.9375 -1 4 C-1.99 4.33 -2.98 4.66 -4 5 C-3.938125 5.78375 -3.87625 6.5675 -3.8125 7.375 C-3.874375 8.24125 -3.93625 9.1075 -4 10 C-4.99 10.66 -5.98 11.32 -7 12 C-7.33 12.66 -7.66 13.32 -8 14 C-10.48836965 10.26744552 -10.54226552 8.41559065 -10 4 C-6.88228157 0.52597089 -4.64040092 -0.53033153 0 0 Z " fill="#E5E6E8" transform="translate(389,187)"/>
<path d="M0 0 C-0.78697325 3.41021743 -1.87119943 6.68885166 -3 10 C-3.33 10 -3.66 10 -4 10 C-4.33 20.23 -4.66 30.46 -5 41 C-5.33 41 -5.66 41 -6 41 C-6.09882689 35.64320272 -6.17144782 30.28693515 -6.21972656 24.92944336 C-6.23985059 23.1067582 -6.26715296 21.28413766 -6.30175781 19.46166992 C-6.35024268 16.84277412 -6.37296009 14.22473121 -6.390625 11.60546875 C-6.41127014 10.78974899 -6.43191528 9.97402924 -6.45318604 9.1335907 C-6.45542843 3.48861968 -6.45542843 3.48861968 -4.10058594 0.9621582 C-2 0 -2 0 0 0 Z " fill="#0B1118" transform="translate(318,116)"/>
<path d="M0 0 C0.66 0.33 1.32 0.66 2 1 C1.35125916 1.5502887 0.70251831 2.10057739 0.03411865 2.6675415 C-2.40977179 5.46987214 -2.51102742 6.65787913 -2.54589844 10.31933594 C-2.56561707 11.38013367 -2.58533569 12.4409314 -2.60565186 13.53387451 C-2.60688049 14.67253967 -2.60810913 15.81120483 -2.609375 16.984375 C-2.62591125 18.15510559 -2.64244751 19.32583618 -2.65948486 20.53204346 C-2.70807081 24.27141511 -2.72936033 28.01037976 -2.75 31.75 C-2.77815066 34.28517684 -2.80807679 36.82033464 -2.83984375 39.35546875 C-2.91383281 45.57023835 -2.96541324 51.78489299 -3 58 C-3.33 58 -3.66 58 -4 58 C-4.10134036 50.38292796 -4.17144061 42.76602947 -4.21972656 35.1484375 C-4.23985375 32.55657454 -4.26715816 29.96475704 -4.30175781 27.37304688 C-4.35022501 23.64962551 -4.37295816 19.92680401 -4.390625 16.203125 C-4.41127014 15.04258606 -4.43191528 13.88204712 -4.45318604 12.68634033 C-4.45348816 11.60552185 -4.45379028 10.52470337 -4.45410156 9.41113281 C-4.46742523 7.98550018 -4.46742523 7.98550018 -4.48101807 6.53106689 C-3.86458592 3.28746522 -2.48089185 2.09105168 0 0 Z " fill="#D6DDE0" transform="translate(521,101)"/>
<path d="M0 0 C1.65 0.33 3.3 0.66 5 1 C3.02 1.99 3.02 1.99 1 3 C0.67 10.59 0.34 18.18 0 26 C-2.48432897 23.51567103 -2.25654203 22.73971462 -2.265625 19.31640625 C-2.26820313 18.38892578 -2.27078125 17.46144531 -2.2734375 16.50585938 C-2.26570313 15.53455078 -2.25796875 14.56324219 -2.25 13.5625 C-2.25773437 12.59505859 -2.26546875 11.62761719 -2.2734375 10.63085938 C-2.27085937 9.70208984 -2.26828125 8.77332031 -2.265625 7.81640625 C-2.26336914 6.96506104 -2.26111328 6.11371582 -2.25878906 5.23657227 C-2 3 -2 3 0 0 Z " fill="#BCBFC5" transform="translate(411,187)"/>
<path d="M0 0 C1.1484375 1.671875 1.1484375 1.671875 2 4 C1.1015625 6.578125 1.1015625 6.578125 -0.375 9.25 C-1.09816406 10.58804688 -1.09816406 10.58804688 -1.8359375 11.953125 C-2.22007812 12.62859375 -2.60421875 13.3040625 -3 14 C-3.66 14 -4.32 14 -5 14 C-5.66 11.69 -6.32 9.38 -7 7 C-6.01 6.67 -5.02 6.34 -4 6 C-3.65657551 4.66923011 -3.32380126 3.33568021 -3 2 C-2.01 1.34 -1.02 0.68 0 0 Z " fill="#131B24" transform="translate(323,187)"/>
<path d="M0 0 C3.96 0.33 7.92 0.66 12 1 C11.67 2.65 11.34 4.3 11 6 C11.66 6.33 12.32 6.66 13 7 C9.70342144 7 7.83635572 6.25666731 4.8125 5 C3.91144531 4.62875 3.01039063 4.2575 2.08203125 3.875 C1.39496094 3.58625 0.70789063 3.2975 0 3 C0 2.01 0 1.02 0 0 Z " fill="#1E252D" transform="translate(386,193)"/>
<path d="M0 0 C0.66 0.33 1.32 0.66 2 1 C1.34 1.66 0.68 2.32 0 3 C0.165 3.61875 0.33 4.2375 0.5 4.875 C1.14106968 7.59954614 0.41793887 8.66457128 -1 11 C-2.32 11 -3.64 11 -5 11 C-5.99 11.33 -6.98 11.66 -8 12 C-6.64994369 6.32976351 -4.1842771 3.82042691 0 0 Z " fill="#E9EFF0" transform="translate(467,106)"/>
<path d="M0 0 C-1.15173355 2.46800047 -2.04783565 4.04783565 -4 6 C-4 6.33 -4 6.66 -4 7 C-7.94727588 7.17942163 -10.5980513 7.09350689 -14 5 C-14 4.34 -14 3.68 -14 3 C-12.0424015 2.49713066 -10.08389623 1.9977901 -8.125 1.5 C-7.03445312 1.2215625 -5.94390625 0.943125 -4.8203125 0.65625 C-2 0 -2 0 0 0 Z " fill="#10161B" transform="translate(124,213)"/>
<path d="M0 0 C1.3921875 0.3403125 1.3921875 0.3403125 2.8125 0.6875 C3.1425 1.6775 3.4725 2.6675 3.8125 3.6875 C4.1425 3.0275 4.4725 2.3675 4.8125 1.6875 C5.8025 2.0175 6.7925 2.3475 7.8125 2.6875 C6.10421079 4.79383718 5.29101584 5.62551608 2.55078125 5.98046875 C1.75027344 5.94566406 0.94976562 5.91085938 0.125 5.875 C-0.68324219 5.84792969 -1.49148438 5.82085937 -2.32421875 5.79296875 C-2.93910156 5.75816406 -3.55398438 5.72335938 -4.1875 5.6875 C-4.1875 5.0275 -4.1875 4.3675 -4.1875 3.6875 C-4.8475 3.3575 -5.5075 3.0275 -6.1875 2.6875 C-4.14987265 -0.14253799 -3.59070275 -0.35202968 0 0 Z " fill="#F6FAFC" transform="translate(357.1875,208.3125)"/>
<path d="M0 0 C4.455 0.99 4.455 0.99 9 2 C9.33 3.32 9.66 4.64 10 6 C7.83032311 6.95465783 6.43671207 7.14401212 4.17578125 6.3984375 C2.4315257 5.64129615 0.71372869 4.82390802 -1 4 C-0.67 2.68 -0.34 1.36 0 0 Z " fill="#181F26" transform="translate(382,202)"/>
<path d="M0 0 C0.99 0.99 1.98 1.98 3 3 C3.66 2.67 4.32 2.34 5 2 C6.65 4.64 8.3 7.28 10 10 C9.01 10.33 8.02 10.66 7 11 C6.67 10.01 6.34 9.02 6 8 C4.68 8.33 3.36 8.66 2 9 C0.4375 6.1875 0.4375 6.1875 -1 3 C-0.67 2.01 -0.34 1.02 0 0 Z " fill="#0B121C" transform="translate(400,147)"/>
<path d="M0 0 C0 0.66 0 1.32 0 2 C-1.26607607 2.53229326 -2.53810412 3.05044544 -3.8125 3.5625 C-4.52019531 3.85253906 -5.22789063 4.14257812 -5.95703125 4.44140625 C-8 5 -8 5 -11 4 C-11.33 4 -11.66 4 -12 4 C-13.66821323 3.67449498 -15.33499557 3.34153937 -17 3 C-11.60607057 -0.11188236 -6.10318684 -0.12206374 0 0 Z " fill="#E0E8E9" transform="translate(88,46)"/>
<path d="M0 0 C4.29 0 8.58 0 13 0 C13 3.57575896 11.91159393 5.05295935 10 8 C9.01 7.34 8.02 6.68 7 6 C7 5.34 7 4.68 7 4 C7.66 3.67 8.32 3.34 9 3 C8.071875 3 7.14375 3 6.1875 3 C4.125 3 2.0625 3 0 3 C0 2.01 0 1.02 0 0 Z " fill="#1B242B" transform="translate(351,213)"/>
<path d="M0 0 C1.9375 0.625 1.9375 0.625 4 2 C4.875 4.9375 4.875 4.9375 5 8 C4.01 9.485 4.01 9.485 3 11 C2.4225 10.05125 1.845 9.1025 1.25 8.125 C-0.82816551 5.23865902 -1.75468075 4.15904259 -5 3 C-3.35 2.67 -1.7 2.34 0 2 C0 1.34 0 0.68 0 0 Z " fill="#11171F" transform="translate(312,183)"/>
<path d="M0 0 C0.33 1.32 0.66 2.64 1 4 C0.01 4.66 -0.98 5.32 -2 6 C-1.34 6.33 -0.68 6.66 0 7 C-2.04796007 10.0719401 -3.68290303 11.45202141 -7 13 C-7.33 13.66 -7.66 14.32 -8 15 C-8.66 14.67 -9.32 14.34 -10 14 C-8.90073597 12.22611914 -7.79539498 10.45600316 -6.6875 8.6875 C-6.07261719 7.70136719 -5.45773438 6.71523437 -4.82421875 5.69921875 C-3.33675339 3.49827965 -1.9596614 1.76671012 0 0 Z " fill="#E2E8E9" transform="translate(28,75)"/>
<path d="M0 0 C1.98 1.32 3.96 2.64 6 4 C5.67 4.99 5.34 5.98 5 7 C3.58297487 6.85769192 2.1663904 6.71099254 0.75 6.5625 C-0.43335938 6.44068359 -0.43335938 6.44068359 -1.640625 6.31640625 C-3.82364639 6.02365007 -5.8773182 5.57935581 -8 5 C-7.4225 4.731875 -6.845 4.46375 -6.25 4.1875 C-3.9674132 2.98280141 -2.0262058 1.59201885 0 0 Z " fill="#0C121C" transform="translate(435,158)"/>
<path d="M0 0 C0.33 0.99 0.66 1.98 1 3 C1.99 2.67 2.98 2.34 4 2 C6.09350689 5.4019487 6.17942163 8.05272412 6 12 C5.01 12 4.02 12 3 12 C2.30062798 10.5682384 1.61587282 9.12932968 0.9375 7.6875 C0.55464844 6.88699219 0.17179688 6.08648437 -0.22265625 5.26171875 C-1 3 -1 3 0 0 Z " fill="#0E151C" transform="translate(175,96)"/>
<path d="M0 0 C0 0.99 0 1.98 0 3 C-0.99 3.495 -0.99 3.495 -2 4 C-2 4.66 -2 5.32 -2 6 C-4.31 5.67 -6.62 5.34 -9 5 C-9 4.01 -9 3.02 -9 2 C-8.01 1.67 -7.02 1.34 -6 1 C-6.99 0.34 -7.98 -0.32 -9 -1 C-5.22102349 -2.0497157 -3.35080929 -2.10976881 0 0 Z " fill="#18232F" transform="translate(286,96)"/>
<path d="M0 0 C0.33 0 0.66 0 1 0 C1.19789024 3.22861733 1.38146345 6.45789727 1.5625 9.6875 C1.61857422 10.59951172 1.67464844 11.51152344 1.73242188 12.45117188 C1.78076172 13.33740234 1.82910156 14.22363281 1.87890625 15.13671875 C1.94960327 16.35427856 1.94960327 16.35427856 2.02172852 17.59643555 C1.99838228 20.1789485 1.5804792 22.48849909 1 25 C-3 25 -3 25 -5 24 C-4.35546875 23.37738281 -3.7109375 22.75476563 -3.046875 22.11328125 C-0.22445455 17.82040129 -0.33258043 14.22115256 -0.25 9.1875 C-0.22035156 8.30384766 -0.19070313 7.42019531 -0.16015625 6.50976562 C-0.0897961 4.34032782 -0.04259393 2.17016052 0 0 Z " fill="#454A50" transform="translate(369,188)"/>
<path d="M0 0 C0.66 0 1.32 0 2 0 C2.33 2.97 2.66 5.94 3 9 C3.66 8.67 4.32 8.34 5 8 C5.66 8.33 6.32 8.66 7 9 C7.33 7.68 7.66 6.36 8 5 C8.125 7.875 8.125 7.875 8 11 C7.34 11.66 6.68 12.32 6 13 C4.35 12.67 2.7 12.34 1 12 C0.67 8.04 0.34 4.08 0 0 Z " fill="#DBDDDF" transform="translate(327,201)"/>
<path d="M0 0 C1.4606285 2.64738916 2 3.89448334 2 7 C-0.31 7.33 -2.62 7.66 -5 8 C-5 8.99 -5 9.98 -5 11 C-5.99 10.67 -6.98 10.34 -8 10 C-7.04367001 8.70684939 -6.08486149 7.41553147 -5.125 6.125 C-4.59132812 5.40570313 -4.05765625 4.68640625 -3.5078125 3.9453125 C-2 2 -2 2 0 0 Z " fill="#141B21" transform="translate(164,184)"/>
<path d="M0 0 C0.86625 0.556875 0.86625 0.556875 1.75 1.125 C0.76 1.785 -0.23 2.445 -1.25 3.125 C-2.30104383 4.75995707 -3.30988318 6.42383624 -4.25 8.125 C-4.58 7.465 -4.91 6.805 -5.25 6.125 C-5.91 6.125 -6.57 6.125 -7.25 6.125 C-7 3.75 -7 3.75 -6.25 1.125 C-3.80299775 -0.81572592 -2.94395499 -1.14487138 0 0 Z " fill="#10161B" transform="translate(374.25,115.875)"/>
<path d="M0 0 C0.66 0.66 1.32 1.32 2 2 C0.25766175 2.72697561 -1.49427345 3.43098244 -3.25 4.125 C-4.22453125 4.51945312 -5.1990625 4.91390625 -6.203125 5.3203125 C-9 6 -9 6 -11.359375 5.1171875 C-11.90078125 4.74851562 -12.4421875 4.37984375 -13 4 C-12.01 4 -11.02 4 -10 4 C-9.67 3.01 -9.34 2.02 -9 1 C-5.75778445 -0.08073852 -3.39597063 -0.21676408 0 0 Z " fill="#111820" transform="translate(69,47)"/>
<path d="M0 0 C0.33 0 0.66 0 1 0 C1.05786668 3.79160297 1.09355054 7.58309311 1.125 11.375 C1.14175781 12.45523438 1.15851563 13.53546875 1.17578125 14.6484375 C1.18222656 15.6796875 1.18867188 16.7109375 1.1953125 17.7734375 C1.20578613 18.72653809 1.21625977 19.67963867 1.22705078 20.66162109 C1 23 1 23 -1 25 C-3.125 24.625 -3.125 24.625 -5 24 C-3.625 22.5 -3.625 22.5 -2 21 C-1.34 21 -0.68 21 0 21 C0 14.07 0 7.14 0 0 Z " fill="#D0D0D3" transform="translate(416,189)"/>
<path d="M0 0 C-0.99 0.495 -0.99 0.495 -2 1 C-1.360625 1.45375 -0.72125 1.9075 -0.0625 2.375 C2 4 2 4 3 6 C1.02 6.99 1.02 6.99 -1 8 C-1.86625 7.071875 -1.86625 7.071875 -2.75 6.125 C-4.80249821 4.18652947 -6.43366582 3.09985751 -9 2 C-3.375 -1.125 -3.375 -1.125 0 0 Z " fill="#131D24" transform="translate(366,97)"/>
<path d="M0 0 C2 1 2 1 3.5625 2.4375 C7.11222908 4.71296736 10.89124104 5.25375104 15 6 C15 6.33 15 6.66 15 7 C8.86520402 7.37559975 4.41507781 7.04598127 -1 4 C-1.33 3.01 -1.66 2.02 -2 1 C-1.34 0.67 -0.68 0.34 0 0 Z " fill="#252D35" transform="translate(479,141)"/>
<path d="M0 0 C0.33 0.66 0.66 1.32 1 2 C1.99 2.33 2.98 2.66 4 3 C8.09302326 8.11627907 8.09302326 8.11627907 7.75 11.375 C7.37875 12.179375 7.37875 12.179375 7 13 C3.78119883 9.2064129 1.3836813 5.34170523 -1 1 C-0.67 0.67 -0.34 0.34 0 0 Z " fill="#151B22" transform="translate(164,77)"/>
<path d="M0 0 C0.66 0 1.32 0 2 0 C2.33 0.99 2.66 1.98 3 3 C5.12364481 3.22609337 5.12364481 3.22609337 6.625 1.5 C7.07875 1.005 7.5325 0.51 8 0 C9.33332095 2.6666419 8.67102033 4.16680303 8 7 C6.68 6.67 5.36 6.34 4 6 C2.515 8.475 2.515 8.475 1 11 C0.34 10.67 -0.32 10.34 -1 10 C-0.67 9.34 -0.34 8.68 0 8 C0.0689472 6.62657169 0.08467708 5.24997898 0.0625 3.875 C0.041875 2.59625 0.02125 1.3175 0 0 Z " fill="#1B242D" transform="translate(263,81)"/>
<path d="M0 0 C0.66 0 1.32 0 2 0 C2 0.66 2 1.32 2 2 C1.01 1.67 0.02 1.34 -1 1 C-0.67 0.67 -0.34 0.34 0 0 Z M-3 2 C-2.34 2 -1.68 2 -1 2 C-0.375 3.875 -0.375 3.875 0 6 C-1.33333333 7.33333333 -2.66666667 8.66666667 -4 10 C-3.34 10.33 -2.68 10.66 -2 11 C-2.99 11 -3.98 11 -5 11 C-5.125 7.625 -5.125 7.625 -5 4 C-4.34 3.34 -3.68 2.68 -3 2 Z " fill="#F0F4F6" transform="translate(214,107)"/>
<path d="M0 0 C1.32 0 2.64 0 4 0 C4.8125 1.625 4.8125 1.625 5 4 C3.53181864 6.24609835 1.84147142 8.02378677 0 10 C-1.0625 8.125 -1.0625 8.125 -2 6 C-1.67 5.34 -1.34 4.68 -1 4 C-0.34 4 0.32 4 1 4 C0.67 2.68 0.34 1.36 0 0 Z " fill="#0C161A" transform="translate(24,71)"/>
<path d="M0 0 C1.65 0.33 3.3 0.66 5 1 C4.01 3.64 3.02 6.28 2 9 C1.67 8.34 1.34 7.68 1 7 C0.34 6.67 -0.32 6.34 -1 6 C-1.33 5.01 -1.66 4.02 -2 3 C-1.34 2.01 -0.68 1.02 0 0 Z " fill="#0D151F" transform="translate(224,192)"/>
<path d="M0 0 C0.99 1.32 1.98 2.64 3 4 C1.63016497 7.16115776 1.0109362 7.9927092 -2 10 C-2 10.66 -2 11.32 -2 12 C-2.99 12 -3.98 12 -5 12 C-3.41037341 7.96479403 -1.71767682 3.98188718 0 0 Z " fill="#1F242B" transform="translate(174,166)"/>
<path d="M0 0 C4.29 0.99 8.58 1.98 13 3 C9.68629 5.20914 8.6553979 5.22481553 4.8125 5.125 C3.91144531 5.10695312 3.01039062 5.08890625 2.08203125 5.0703125 C1.39496094 5.04710937 0.70789063 5.02390625 0 5 C-0.33 4.34 -0.66 3.68 -1 3 C-0.67 2.01 -0.34 1.02 0 0 Z " fill="#E8ECEE" transform="translate(111,167)"/>
<path d="M0 0 C0.66 0.33 1.32 0.66 2 1 C1.35546875 1.44859375 0.7109375 1.8971875 0.046875 2.359375 C-3.0611305 6.36893935 -2.67384692 10.30697279 -2.75 15.25 C-2.77964844 16.18585938 -2.80929687 17.12171875 -2.83984375 18.0859375 C-2.91039804 20.39071092 -2.96316252 22.69448168 -3 25 C-3.33 25 -3.66 25 -4 25 C-4.11632513 21.58362047 -4.18728897 18.16775103 -4.25 14.75 C-4.28351562 13.78191406 -4.31703125 12.81382813 -4.3515625 11.81640625 C-4.45112665 4.5980051 -4.45112665 4.5980051 -1.984375 1.328125 C-1.00210938 0.67070313 -1.00210938 0.67070313 0 0 Z " fill="#C8CDD2" transform="translate(521,101)"/>
<path d="M0 0 C0.66 1.98 1.32 3.96 2 6 C-1 7 -1 7 -4 6 C-4 5.34 -4 4.68 -4 4 C-4.66 3.67 -5.32 3.34 -6 3 C-2.25 0 -2.25 0 0 0 Z " fill="#E8EDEF" transform="translate(540,102)"/>
<path d="M0 0 C1.65 1.65 3.3 3.3 5 5 C3.68 5.99 2.36 6.98 1 8 C-1.51083114 6.74458443 -1.87125446 5.49936512 -3 3 C-2.01 2.01 -1.02 1.02 0 0 Z " fill="#F5F5F4" transform="translate(153,69)"/>
<path d="M0 0 C2.31 0.33 4.62 0.66 7 1 C6.34 2.32 5.68 3.64 5 5 C2.69 5 0.38 5 -2 5 C-1.34 3.35 -0.68 1.7 0 0 Z " fill="#F9F9FA" transform="translate(386,209)"/>
<path d="M0 0 C0.66 0 1.32 0 2 0 C1.67 0.99 1.34 1.98 1 3 C0.85110253 4.84466442 0.7520899 6.69357275 0.68359375 8.54296875 C0.62075195 10.15268555 0.62075195 10.15268555 0.55664062 11.79492188 C0.51732422 12.91447266 0.47800781 14.03402344 0.4375 15.1875 C0.39431641 16.31865234 0.35113281 17.44980469 0.30664062 18.61523438 C0.20050901 21.41003354 0.09845615 24.20492162 0 27 C-0.33 27 -0.66 27 -1 27 C-1.02886537 22.68751391 -1.04675255 18.37505238 -1.0625 14.0625 C-1.07087891 12.83080078 -1.07925781 11.59910156 -1.08789062 10.33007812 C-1.09111328 9.16025391 -1.09433594 7.99042969 -1.09765625 6.78515625 C-1.10289307 5.70113525 -1.10812988 4.61711426 -1.11352539 3.50024414 C-1 1 -1 1 0 0 Z " fill="#D4DADC" transform="translate(305,187)"/>
<path d="M0 0 C0.66 1.32 1.32 2.64 2 4 C-0.85276137 6.93200474 -3.65079784 9.64315404 -7 12 C-8.32 11.34 -9.64 10.68 -11 10 C-10.37351562 9.61328125 -9.74703125 9.2265625 -9.1015625 8.828125 C-8.28429687 8.30734375 -7.46703125 7.7865625 -6.625 7.25 C-5.40683594 6.48429688 -5.40683594 6.48429688 -4.1640625 5.703125 C-1.91444321 3.9326665 -1.04093152 2.63092581 0 0 Z " fill="#D8DFE0" transform="translate(76,168)"/>
<path d="M0 0 C1.32 0.33 2.64 0.66 4 1 C4 2.66666667 4 4.33333333 4 6 C1.69 6.66 -0.62 7.32 -3 8 C-3 7.01 -3 6.02 -3 5 C-2.01 4.34 -1.02 3.68 0 3 C0 2.01 0 1.02 0 0 Z " fill="#0E1416" transform="translate(476,120)"/>
<path d="M0 0 C1.1446875 0.2475 1.1446875 0.2475 2.3125 0.5 C5.03596236 1.09145396 5.03596236 1.09145396 8 1 C8 1.66 8 2.32 8 3 C8.66 3 9.32 3 10 3 C10 3.66 10 4.32 10 5 C9.34 5 8.68 5 8 5 C8 5.66 8 6.32 8 7 C6 7 6 7 4.5625 5.625 C4.046875 5.08875 3.53125 4.5525 3 4 C2.01 3.34 1.02 2.68 0 2 C0 1.34 0 0.68 0 0 Z " fill="#191F28" transform="translate(305,98)"/>
<path d="M0 0 C-0.66 1.32 -1.32 2.64 -2 4 C-3.65 4 -5.3 4 -7 4 C-7.33 2.68 -7.66 1.36 -8 0 C-5.13822943 -1.43088528 -3.06624227 -0.59991697 0 0 Z " fill="#131A21" transform="translate(362,204)"/>
<path d="M0 0 C0 3.13751221 -0.35179805 4.39757586 -2 7 C-2.99 7.33 -3.98 7.66 -5 8 C-6.35622245 8.96873032 -7.69417053 9.96434215 -9 11 C-9 10.34 -9 9.68 -9 9 C-9.99 8.34 -10.98 7.68 -12 7 C-11.38511719 6.74605469 -10.77023438 6.49210938 -10.13671875 6.23046875 C-9.32847656 5.88628906 -8.52023438 5.54210937 -7.6875 5.1875 C-6.88699219 4.85105469 -6.08648437 4.51460937 -5.26171875 4.16796875 C-3.03484255 3.01799296 -1.65012233 1.86373039 0 0 Z " fill="#DEE4E6" transform="translate(136,162)"/>
<path d="M0 0 C0.99 0.33 1.98 0.66 3 1 C2.67 1.66 2.34 2.32 2 3 C2.99 3.99 3.98 4.98 5 6 C4.67 6.66 4.34 7.32 4 8 C3.34 8 2.68 8 2 8 C1.67 7.67 1.34 7.34 1 7 C-0.32520503 6.31731862 -1.65812182 5.6492959 -3 5 C-1.125 1.125 -1.125 1.125 0 0 Z " fill="#171D22" transform="translate(49,149)"/>
<path d="M0 0 C3.87167736 3.26672777 3.87167736 3.26672777 4.4375 6.5 C3.93027366 9.39843626 2.93615523 10.82182537 1 13 C-0.32 12.34 -1.64 11.68 -3 11 C0.75 8 0.75 8 3 8 C3 7.01 3 6.02 3 5 C2.01 4.67 1.02 4.34 0 4 C0 2.68 0 1.36 0 0 Z " fill="#D3D4D9" transform="translate(551,102)"/>
<path d="M0 0 C0.66 0 1.32 0 2 0 C2.33 0.99 2.66 1.98 3 3 C0.36 4.65 -2.28 6.3 -5 8 C-5.66 7.34 -6.32 6.68 -7 6 C-6.34 5.01 -5.68 4.02 -5 3 C-3.68 3.33 -2.36 3.66 -1 4 C-0.67 2.68 -0.34 1.36 0 0 Z " fill="#E8E9EB" transform="translate(145,198)"/>
<path d="M0 0 C1.32 0.33 2.64 0.66 4 1 C3.67 8.92 3.34 16.84 3 25 C2.67 25 2.34 25 2 25 C1.97494385 24.31373535 1.9498877 23.6274707 1.92407227 22.92041016 C1.80828573 19.82174183 1.68548115 16.72339077 1.5625 13.625 C1.52318359 12.54476562 1.48386719 11.46453125 1.44335938 10.3515625 C1.40146484 9.3203125 1.35957031 8.2890625 1.31640625 7.2265625 C1.27974854 6.27346191 1.24309082 5.32036133 1.20532227 4.33837891 C1.14236535 1.97867651 1.14236535 1.97867651 0 0 Z " fill="#2D2E36" transform="translate(415,187)"/>
<path d="M0 0 C0.79921875 0.01804688 1.5984375 0.03609375 2.421875 0.0546875 C3.02515625 0.07789063 3.6284375 0.10109375 4.25 0.125 C3.92 1.445 3.59 2.765 3.25 4.125 C1.6 3.795 -0.05 3.465 -1.75 3.125 C-1.75 2.465 -1.75 1.805 -1.75 1.125 C-2.74 1.785 -3.73 2.445 -4.75 3.125 C-6.9375 2.75 -6.9375 2.75 -8.75 2.125 C-5.68753253 0.34090198 -3.52920727 -0.10380021 0 0 Z " fill="#151C1E" transform="translate(59.75,145.875)"/>
<path d="M0 0 C0.66 0.66 1.32 1.32 2 2 C0.66667905 5.99996286 -1.4957827 6.83782337 -5 9 C-5.33 7.68 -5.66 6.36 -6 5 C-4.02 3.35 -2.04 1.7 0 0 Z " fill="#ECEDEF" transform="translate(113,134)"/>
<path d="M0 0 C1.89213369 2.38573379 3.02391783 4.07175348 4 7 C4.66 7.66 5.32 8.32 6 9 C6 9.99 6 10.98 6 12 C3.53199953 10.84826645 1.95216435 9.95216435 0 8 C-0.26991906 5.31160615 -0.08737357 2.70858064 0 0 Z " fill="#D4DBDF" transform="translate(271,83)"/>
<path d="M0 0 C0.33 0 0.66 0 1 0 C1.25 6.625 1.25 6.625 -1 10 C-1.66 10 -2.32 10 -3 10 C-3.66 8.68 -4.32 7.36 -5 6 C-4.34 6 -3.68 6 -3 6 C-2.67 5.01 -2.34 4.02 -2 3 C-1.34 3 -0.68 3 0 3 C0 2.01 0 1.02 0 0 Z " fill="#F0F1F3" transform="translate(263,82)"/>
<path d="M0 0 C-1.65 1.32 -3.3 2.64 -5 4 C-4.67 4.66 -4.34 5.32 -4 6 C-5.65 6 -7.3 6 -9 6 C-8.75 3.625 -8.75 3.625 -8 1 C-5.12800349 -1.17875597 -3.33791789 -1.19211353 0 0 Z " fill="#D2DBDD" transform="translate(445,71)"/>
<path d="M0 0 C1.32 0.66 2.64 1.32 4 2 C-1.10693473 5.91531663 -3.63515636 6.10265877 -10 6 C-8.1875 4.9375 -8.1875 4.9375 -6 4 C-5.01 4.33 -4.02 4.66 -3 5 C-3 4.34 -3 3.68 -3 3 C-1.5 1.375 -1.5 1.375 0 0 Z " fill="#1D2326" transform="translate(65,174)"/>
<path d="M0 0 C1.32 0.33 2.64 0.66 4 1 C2.90931332 4.77545388 2.0916909 7.47043472 -1 10 C-2.31223496 6.06329512 -1.24296256 3.87511856 0 0 Z " fill="#E9EDED" transform="translate(170,166)"/>
<path d="M0 0 C3.35620271 1.38877354 5.07298728 2.91677965 7 6 C7 6.66 7 7.32 7 8 C6.01 8.33 5.02 8.66 4 9 C3.34 8.67 2.68 8.34 2 8 C2.33 7.01 2.66 6.02 3 5 C1.68 3.68 0.36 2.36 -1 1 C-0.67 0.67 -0.34 0.34 0 0 Z " fill="#0E121A" transform="translate(377,157)"/>
<path d="M0 0 C1.32 0.66 2.64 1.32 4 2 C3.21718695 3.33855056 2.42348123 4.67073644 1.625 6 C1.18414063 6.7425 0.74328125 7.485 0.2890625 8.25 C-0.13632812 8.8275 -0.56171875 9.405 -1 10 C-1.66 10 -2.32 10 -3 10 C-2.69201674 8.51988629 -2.378482 7.04092675 -2.0625 5.5625 C-1.88847656 4.73878906 -1.71445313 3.91507812 -1.53515625 3.06640625 C-1 1 -1 1 0 0 Z " fill="#161F25" transform="translate(17,84)"/>
<path d="M0 0 C0.99 0 1.98 0 3 0 C3 0.66 3 1.32 3 2 C3.99 2.33 4.98 2.66 6 3 C2.49223216 4.60355101 -0.14354879 5.22036864 -4 5 C-4.33 4.34 -4.66 3.68 -5 3 C-3.35 2.67 -1.7 2.34 0 2 C0 1.34 0 0.68 0 0 Z " fill="#1C242B" transform="translate(441,203)"/>
<path d="M0 0 C0.33 0 0.66 0 1 0 C1 2.64 1 5.28 1 8 C0.34 8 -0.32 8 -1 8 C-1 8.66 -1 9.32 -1 10 C-1.99 10 -2.98 10 -4 10 C-2.99806563 6.20696275 -2.18975773 3.28463659 0 0 Z " fill="#E7EDEF" transform="translate(17,91)"/>
<path d="M0 0 C0.66 0.33 1.32 0.66 2 1 C1.01 2.485 1.01 2.485 0 4 C0.33 4.66 0.66 5.32 1 6 C-0.98 6.33 -2.96 6.66 -5 7 C-5.66 6.01 -6.32 5.02 -7 4 C-1.7265625 0.77734375 -1.7265625 0.77734375 0 0 Z " fill="#E2E8E9" transform="translate(55,54)"/>
<path d="M0 0 C2.97 0.33 5.94 0.66 9 1 C4.5 5 4.5 5 0 5 C0.66 4.34 1.32 3.68 2 3 C1.34 2.67 0.68 2.34 0 2 C0 1.34 0 0.68 0 0 Z " fill="#F3F6F8" transform="translate(432,207)"/>
<path d="M0 0 C1.32 0.33 2.64 0.66 4 1 C3.67 2.65 3.34 4.3 3 6 C1.68 6 0.36 6 -1 6 C-1.33 5.01 -1.66 4.02 -2 3 C-1.34 2.01 -0.68 1.02 0 0 Z " fill="#F2F5F8" transform="translate(394,189)"/>
<path d="M0 0 C0.928125 0.7115625 0.928125 0.7115625 1.875 1.4375 C-1.13488272 2.01802245 -4.05389402 2.49739746 -7.125 2.4375 C-9.1875 0.5 -9.1875 0.5 -10.125 -1.5625 C-3.80631868 -2.79876374 -3.80631868 -2.79876374 0 0 Z M-2.125 -1.5625 C-0.125 -0.5625 -0.125 -0.5625 -0.125 -0.5625 Z " fill="#1A232A" transform="translate(390.125,185.5625)"/>
<path d="M0 0 C1.55347992 4.14261313 0.88763731 7.76665282 0 12 C-2.05078125 13.2421875 -2.05078125 13.2421875 -4 14 C-3.52188823 12.22888156 -3.0424722 10.45811517 -2.5625 8.6875 C-2.29566406 7.70136719 -2.02882812 6.71523437 -1.75390625 5.69921875 C-1.21920575 3.78482474 -0.62855462 1.88566385 0 0 Z " fill="#2B3036" transform="translate(179,152)"/>
<path d="M0 0 C3 0 3 0 5 1 C4.2884375 1.7115625 4.2884375 1.7115625 3.5625 2.4375 C1.31923904 6.11644797 1.26260422 9.7621112 1 14 C0.67 14 0.34 14 0 14 C-0.19393875 11.85473901 -0.37998676 9.70876323 -0.5625 7.5625 C-0.71912109 5.77005859 -0.71912109 5.77005859 -0.87890625 3.94140625 C-0.91886719 2.97074219 -0.95882813 2.00007812 -1 1 C-0.67 0.67 -0.34 0.34 0 0 Z " fill="#171F28" transform="translate(425,190)"/>
<path d="M0 0 C-1.98 2.31 -3.96 4.62 -6 7 C-7 3 -7 3 -7 0 C-2.25 -1.125 -2.25 -1.125 0 0 Z " fill="#1B232A" transform="translate(138,160)"/>
<path d="M0 0 C0 0.99 0 1.98 0 3 C-0.66 3 -1.32 3 -2 3 C-2 3.66 -2 4.32 -2 5 C-2.598125 4.835 -3.19625 4.67 -3.8125 4.5 C-6.11344336 3.8885876 -6.11344336 3.8885876 -9 4 C-4.5 0 -4.5 0 0 0 Z " fill="#E3E8EB" transform="translate(374,101)"/>
<path d="M0 0 C0 0.66 0 1.32 0 2 C1.65 1.67 3.3 1.34 5 1 C5 1.66 5 2.32 5 3 C1.53846154 6 1.53846154 6 -1 6 C-1.12375 5.360625 -1.2475 4.72125 -1.375 4.0625 C-1.684375 3.0415625 -1.684375 3.0415625 -2 2 C-2.66 1.67 -3.32 1.34 -4 1 C-2 0 -2 0 0 0 Z " fill="#181E27" transform="translate(533,100)"/>
<path d="M0 0 C-0.66 1.98 -1.32 3.96 -2 6 C-3.65 5.67 -5.3 5.34 -7 5 C-7 4.01 -7 3.02 -7 2 C-2.25 0 -2.25 0 0 0 Z " fill="#0E181E" transform="translate(15,95)"/>
<path d="M0 0 C-1.65 1.98 -3.3 3.96 -5 6 C-5.66 5.67 -6.32 5.34 -7 5 C-6.67 3.35 -6.34 1.7 -6 0 C-3 -1 -3 -1 0 0 Z " fill="#E4E8EA" transform="translate(158,191)"/>
<path d="M0 0 C-0.61277612 2.96175123 -1.25372522 4.38058783 -3 7 C-3.99 6.67 -4.98 6.34 -6 6 C-5.6875 4.125 -5.6875 4.125 -5 2 C-2 0 -2 0 0 0 Z " fill="#121A1E" transform="translate(318,116)"/>
<path d="M0 0 C-0.33 0.33 -0.66 0.66 -1 1 C0.32 1.66 1.64 2.32 3 3 C0.03 3.66 -2.94 4.32 -6 5 C-6.33 4.34 -6.66 3.68 -7 3 C-6.34 3 -5.68 3 -5 3 C-5 2.34 -5 1.68 -5 1 C-5.66 0.67 -6.32 0.34 -7 0 C-2.25 -1.125 -2.25 -1.125 0 0 Z " fill="#DDE1E1" transform="translate(319,113)"/>
<path d="M0 0 C0.66 0.33 1.32 0.66 2 1 C1.01 2.485 1.01 2.485 0 4 C0 4.99 0 5.98 0 7 C-1.32 7.33 -2.64 7.66 -4 8 C-4 7.34 -4 6.68 -4 6 C-4.66 5.67 -5.32 5.34 -6 5 C-4.02 3.35 -2.04 1.7 0 0 Z " fill="#192025" transform="translate(151,197)"/>
<path d="M0 0 C2.0625 0.4375 2.0625 0.4375 4 1 C3.34 2.98 2.68 4.96 2 7 C1.01 6.67 0.02 6.34 -1 6 C-1.042721 4.33388095 -1.04063832 2.66617115 -1 1 C-0.67 0.67 -0.34 0.34 0 0 Z " fill="#DCE1E6" transform="translate(227,196)"/>
<path d="M0 0 C0.99 0 1.98 0 3 0 C3 0.66 3 1.32 3 2 C3.99 2.33 4.98 2.66 6 3 C5.38125 3.4125 4.7625 3.825 4.125 4.25 C1.62982171 6.06345914 1.62982171 6.06345914 0 10 C0 6.7 0 3.4 0 0 Z " fill="#1D2931" transform="translate(207,104)"/>
<path d="M0 0 C1.65 0 3.3 0 5 0 C5 2.97 5 5.94 5 9 C4.01 9 3.02 9 2 9 C2.3403125 8.1646875 2.3403125 8.1646875 2.6875 7.3125 C3.12449065 4.07876916 1.81198627 2.60926022 0 0 Z " fill="#1D232C" transform="translate(518,193)"/>
<path d="M0 0 C0.66 0.33 1.32 0.66 2 1 C1.34 1.66 0.68 2.32 0 3 C0.66 3.66 1.32 4.32 2 5 C-0.25 5.25 -0.25 5.25 -3 5 C-5.3125 3 -5.3125 3 -7 1 C-5.5459375 1.0309375 -5.5459375 1.0309375 -4.0625 1.0625 C-1.12534105 1.35618499 -1.12534105 1.35618499 0 0 Z " fill="#D7DBDC" transform="translate(525,158)"/>
<path d="M0 0 C0.99 0.33 1.98 0.66 3 1 C3.33 3.31 3.66 5.62 4 8 C2.68 7.34 1.36 6.68 0 6 C0 4.02 0 2.04 0 0 Z " fill="#F0F4F8" transform="translate(282,102)"/>
<path d="M0 0 C0.33 0.99 0.66 1.98 1 3 C-0.98 3.99 -2.96 4.98 -5 6 C-5 5.34 -5 4.68 -5 4 C-5.66 3.67 -6.32 3.34 -7 3 C-6.67 2.34 -6.34 1.68 -6 1 C-2.9375 0.375 -2.9375 0.375 0 0 Z " fill="#131B21" transform="translate(49,55)"/>
<path d="M0 0 C2.475 0.495 2.475 0.495 5 1 C5 1.99 5 2.98 5 4 C4.01 4.66 3.02 5.32 2 6 C1.34 5.67 0.68 5.34 0 5 C0 3.35 0 1.7 0 0 Z " fill="#F7F7FB" transform="translate(431,191)"/>
<path d="M0 0 C2.31 0.66 4.62 1.32 7 2 C7 2.66 7 3.32 7 4 C4.125 4.1875 4.125 4.1875 1 4 C0.34 3.01 -0.32 2.02 -1 1 C-0.67 0.67 -0.34 0.34 0 0 Z " fill="#DEE1E5" transform="translate(383,159)"/>
<path d="M0 0 C0.66 0.33 1.32 0.66 2 1 C2 1.66 2 2.32 2 3 C1.34 3 0.68 3 0 3 C-0.33 3.99 -0.66 4.98 -1 6 C-2.32 5.67 -3.64 5.34 -5 5 C-5 4.34 -5 3.68 -5 3 C-2.625 1.3125 -2.625 1.3125 0 0 Z " fill="#1B2026" transform="translate(138,206)"/>
<path d="M0 0 C0.33 0.99 0.66 1.98 1 3 C-0.3125 5.1875 -0.3125 5.1875 -2 7 C-2.66 7 -3.32 7 -4 7 C-4 6.34 -4 5.68 -4 5 C-4.66 5 -5.32 5 -6 5 C-6 4.34 -6 3.68 -6 3 C-5.195625 2.87625 -4.39125 2.7525 -3.5625 2.625 C-2.716875 2.41875 -1.87125 2.2125 -1 2 C-0.67 1.34 -0.34 0.68 0 0 Z " fill="#EDEFF2" transform="translate(368,204)"/>
<path d="M0 0 C0.33 0.99 0.66 1.98 1 3 C0.34 3 -0.32 3 -1 3 C-1 3.66 -1 4.32 -1 5 C-2.98 5.33 -4.96 5.66 -7 6 C-7.33 5.34 -7.66 4.68 -8 4 C-6.865625 3.525625 -5.73125 3.05125 -4.5625 2.5625 C-1.24259834 1.36377917 -1.24259834 1.36377917 0 0 Z " fill="#23282E" transform="translate(435,158)"/>
<path d="M0 0 C-0.8125 1.9375 -0.8125 1.9375 -2 4 C-2.99 4.33 -3.98 4.66 -5 5 C-5.66 4.34 -6.32 3.68 -7 3 C-3.375 0 -3.375 0 0 0 Z " fill="#1E232C" transform="translate(542,117)"/>
<path d="M0 0 C0.66 0.33 1.32 0.66 2 1 C1.24172908 2.17487036 0.46792245 3.33972592 -0.3125 4.5 C-0.74175781 5.1496875 -1.17101562 5.799375 -1.61328125 6.46875 C-2.07089844 6.9740625 -2.52851563 7.479375 -3 8 C-3.99 8 -4.98 8 -6 8 C-4.55746343 4.63408134 -2.66735273 2.48952921 0 0 Z " fill="#C5CDD0" transform="translate(467,106)"/>
<path d="M0 0 C0 1.65 0 3.3 0 5 C-4.875 3.25 -4.875 3.25 -6 1 C-4 0 -4 0 0 0 Z " fill="#191E26" transform="translate(146,57)"/>
<path d="M0 0 C2.475 0.495 2.475 0.495 5 1 C5.33 2.32 5.66 3.64 6 5 C5.01 5 4.02 5 3 5 C1.3125 2.5 1.3125 2.5 0 0 Z " fill="#DEE7EB" transform="translate(444,206)"/>
<path d="M0 0 C0.66 0.33 1.32 0.66 2 1 C2.75 3.9375 2.75 3.9375 3 7 C2.34 7.66 1.68 8.32 1 9 C0.01 6.69 -0.98 4.38 -2 2 C-1.34 2 -0.68 2 0 2 C0 1.34 0 0.68 0 0 Z " fill="#E5E8E9" transform="translate(17,166)"/>
<path d="M0 0 C1.98 0.99 3.96 1.98 6 3 C5.01 3.495 5.01 3.495 4 4 C3.34 3.67 2.68 3.34 2 3 C1.67 3.66 1.34 4.32 1 5 C-0.32 4.01 -1.64 3.02 -3 2 C-2.01 1.34 -1.02 0.68 0 0 Z " fill="#0E171C" transform="translate(520,161)"/>
<path d="M0 0 C0.66 1.32 1.32 2.64 2 4 C0.02 4.99 0.02 4.99 -2 6 C-1.67 7.32 -1.34 8.64 -1 10 C-1.66 10 -2.32 10 -3 10 C-2.25 3.375 -2.25 3.375 0 0 Z " fill="#3F4446" transform="translate(475,119)"/>
<path d="M0 0 C-0.8125 1.9375 -0.8125 1.9375 -2 4 C-2.99 4.33 -3.98 4.66 -5 5 C-5.99 4.34 -6.98 3.68 -8 3 C-2.25 0 -2.25 0 0 0 Z " fill="#DCE4E5" transform="translate(492,120)"/>
<path d="M0 0 C0.99 0 1.98 0 3 0 C3.625 1.8125 3.625 1.8125 4 4 C3.01 5.485 3.01 5.485 2 7 C2 6.34 2 5.68 2 5 C1.01 4.67 0.02 4.34 -1 4 C-0.67 2.68 -0.34 1.36 0 0 Z " fill="#0B161F" transform="translate(455,114)"/>
<path d="M0 0 C-0.33 0.99 -0.66 1.98 -1 3 C-1.66 3 -2.32 3 -3 3 C-3 3.66 -3 4.32 -3 5 C-4.65 4.67 -6.3 4.34 -8 4 C-5.57415142 1.34311822 -3.76063134 0 0 0 Z " fill="#D9DEE1" transform="translate(477,102)"/>
<path d="M0 0 C0.66 0.66 1.32 1.32 2 2 C5.09926819 1.67801034 5.09926819 1.67801034 8 1 C7.67 1.99 7.34 2.98 7 4 C5.35 4 3.7 4 2 4 C2 4.66 2 5.32 2 6 C1.34 6 0.68 6 0 6 C0 4.02 0 2.04 0 0 Z " fill="#2C333A" transform="translate(409,211)"/>
<path d="M0 0 C0.33 0 0.66 0 1 0 C1 2.64 1 5.28 1 8 C0.67 7.34 0.34 6.68 0 6 C-0.99 6.33 -1.98 6.66 -3 7 C-1.125 1.125 -1.125 1.125 0 0 Z " fill="#2D3438" transform="translate(327,202)"/>
<path d="M0 0 C3.465 1.98 3.465 1.98 7 4 C7 4.33 7 4.66 7 5 C4.69 5.33 2.38 5.66 0 6 C0 4.02 0 2.04 0 0 Z " fill="#1C2027" transform="translate(41,200)"/>
<path d="M0 0 C1.65 0 3.3 0 5 0 C4.01 0.495 4.01 0.495 3 1 C3 1.66 3 2.32 3 3 C3.99 3 4.98 3 6 3 C6 3.66 6 4.32 6 5 C4.02 4.34 2.04 3.68 0 3 C0 2.01 0 1.02 0 0 Z " fill="#3D434C" transform="translate(386,193)"/>
<path d="M0 0 C0.99 0.33 1.98 0.66 3 1 C2.67 3.31 2.34 5.62 2 8 C0.4375 6.8125 0.4375 6.8125 -1 5 C-0.6875 2.3125 -0.6875 2.3125 0 0 Z " fill="#181F25" transform="translate(314,186)"/>
<path d="M0 0 C0.66 1.32 1.32 2.64 2 4 C0.35 4.66 -1.3 5.32 -3 6 C-3.33 5.34 -3.66 4.68 -4 4 C-3.34 4 -2.68 4 -2 4 C-1.34 2.68 -0.68 1.36 0 0 Z " fill="#F2F6F4" transform="translate(75,176)"/>
<path d="M0 0 C1.65 0.33 3.3 0.66 5 1 C4.67 1.99 4.34 2.98 4 4 C1.9375 4.6875 1.9375 4.6875 0 5 C-0.33 4.34 -0.66 3.68 -1 3 C-0.67 2.01 -0.34 1.02 0 0 Z " fill="#091116" transform="translate(482,119)"/>
<path d="M0 0 C2 3 2 3 2 5 C-1 6 -1 6 -4 6 C-2.84826645 3.53199953 -1.95216435 1.95216435 0 0 Z " fill="#EEF2F2" transform="translate(364,103)"/>
<path d="M0 0 C0.33 1.32 0.66 2.64 1 4 C0.34 4 -0.32 4 -1 4 C-1.33 4.66 -1.66 5.32 -2 6 C-2.33 5.01 -2.66 4.02 -3 3 C-3.99 2.67 -4.98 2.34 -6 2 C-3.99967627 0.99983813 -2.16874252 0.50603992 0 0 Z " fill="#242930" transform="translate(339,103)"/>
<path d="M0 0 C0.99 0.33 1.98 0.66 3 1 C1.47793991 3.62901288 0.15634036 5.84365964 -2 8 C-2.125 5.125 -2.125 5.125 -2 2 C-1.34 1.34 -0.68 0.68 0 0 Z " fill="#D9DFE2" transform="translate(298,102)"/>
<path d="M0 0 C3.96 1.98 3.96 1.98 8 4 C7.67 4.66 7.34 5.32 7 6 C4.50638429 4.79618552 2.31856917 3.54571278 0 2 C0 1.34 0 0.68 0 0 Z " fill="#E9ECEE" transform="translate(493,102)"/>
<path d="M0 0 C0.33 0.99 0.66 1.98 1 3 C1.99 2.67 2.98 2.34 4 2 C4.33 3.32 4.66 4.64 5 6 C3.68 6 2.36 6 1 6 C0.34 4.35 -0.32 2.7 -1 1 C-0.67 0.67 -0.34 0.34 0 0 Z " fill="#1D2127" transform="translate(175,96)"/>
<path d="M0 0 C0.33 0.66 0.66 1.32 1 2 C0.06553465 4.03144641 -0.93224776 6.03533587 -2 8 C-2.99 7.01 -3.98 6.02 -5 5 C-3.35 3.35 -1.7 1.7 0 0 Z " fill="#E4EAEC" transform="translate(39,64)"/>
<path d="M0 0 C2.31 0 4.62 0 7 0 C7 0.66 7 1.32 7 2 C4.69 2.66 2.38 3.32 0 4 C0 2.68 0 1.36 0 0 Z " fill="#D5DFE1" transform="translate(81,46)"/>
<path d="M0 0 C0.33 0.66 0.66 1.32 1 2 C1.99 2.33 2.98 2.66 4 3 C-0.75 6 -0.75 6 -3 6 C-1.125 1.125 -1.125 1.125 0 0 Z " fill="#1C2227" transform="translate(168,178)"/>
<path d="M0 0 C0.99 0.33 1.98 0.66 3 1 C2.01 2.485 2.01 2.485 1 4 C-1.625 4.1875 -1.625 4.1875 -4 4 C-2.68 2.68 -1.36 1.36 0 0 Z " fill="#EDF1F3" transform="translate(528,158)"/>
<path d="M0 0 C1 2 1 2 0.0625 5.125 C-0.288125 6.07375 -0.63875 7.0225 -1 8 C-1.66 7.34 -2.32 6.68 -3 6 C-2.75 3.4375 -2.75 3.4375 -2 1 C-1.34 0.67 -0.68 0.34 0 0 Z " fill="#ECF0F2" transform="translate(177,156)"/>
<path d="M0 0 C2.64 0 5.28 0 8 0 C7.01 0.33 6.02 0.66 5 1 C5 1.66 5 2.32 5 3 C4.01 3 3.02 3 2 3 C1.67 3.66 1.34 4.32 1 5 C0.67 3.35 0.34 1.7 0 0 Z " fill="#0E161A" transform="translate(118,137)"/>
<path d="M0 0 C1.32 0.33 2.64 0.66 4 1 C2 4 2 4 -0.125 4.6875 C-0.74375 4.790625 -1.3625 4.89375 -2 5 C-1.34 3.35 -0.68 1.7 0 0 Z " fill="#DFE3E7" transform="translate(532,118)"/>
<path d="M0 0 C-1.65 1.32 -3.3 2.64 -5 4 C-5.33 3.34 -5.66 2.68 -6 2 C-6.99 1.67 -7.98 1.34 -9 1 C-2.25 -1.125 -2.25 -1.125 0 0 Z " fill="#EEF1F3" transform="translate(485,113)"/>
<path d="M0 0 C1.32 0.66 2.64 1.32 4 2 C4 2.99 4 3.98 4 5 C3.01 5.33 2.02 5.66 1 6 C0.34 4.35 -0.32 2.7 -1 1 C-0.67 0.67 -0.34 0.34 0 0 Z " fill="#EDECEB" transform="translate(64,86)"/>
</svg>
